<svg width="60" height="60" viewBox="0 0 60 60" fill="none" xmlns="http://www.w3.org/2000/svg">
    <circle cx="30" cy="30" r="30" fill="#233343"/>
    <path d="M26.1727 39.9414H18.5313V36.8849H26.1727V39.9414ZM27.7041 35.3535H17.0022V43H18.5335V41.4728H27.7019L27.7041 35.3535ZM18.5313 21.5899L21.594 18.5293V29.2343H18.5313V21.5899ZM17 30.7677H23.1122V17H20.8218L17.0022 20.8253L17 30.7677ZM26.1727 18.5293H29.2354V29.2343H26.1727V18.5293ZM24.6414 30.7677H30.7536V17H24.648L24.6414 30.7677ZM41.4512 30.7677H42.9825V17H40.7074L38.4038 19.3001V17H36.1133L32.285 20.8253V30.7677H33.8163V21.5899L36.879 18.5293V30.7677H38.4104V21.5899L41.473 18.5293L41.4512 30.7677ZM17.0022 33.8243H42.9913V32.295H17.0022V33.8243ZM36.8746 36.8849H41.4687V39.9414H36.8746V36.8849ZM35.3433 39.9414H30.7493V36.8849H35.3433V39.9414ZM36.8746 41.4707H43V35.3535H29.2376V41.4707H35.3455V42.9979H36.8768L36.8746 41.4707Z" fill="white"/>
</svg>
