<svg width="60" height="60" viewBox="0 0 60 60" fill="none" xmlns="http://www.w3.org/2000/svg">
<circle cx="30" cy="30" r="29.5" fill="white" stroke="#DFDFDF"/>
<path d="M28.3575 16.3569C29.6827 15.7467 31.3366 15.9305 32.4919 16.8198C33.1158 17.2872 33.547 17.9521 33.8823 18.643C34.0021 19.3498 34.0396 20.0768 33.9518 20.7903C33.8003 21.7105 33.1958 22.4524 32.7806 23.2625C31.8373 24.8314 30.9602 26.4401 30.001 28C28.84 26.0317 27.7016 24.0522 26.5542 22.077C25.9247 21.0569 25.871 19.7637 26.1949 18.635C26.6067 17.6504 27.3594 16.78 28.3575 16.3569Z" fill="#063678"/>
<path d="M24.8262 21.4888C25.3264 20.6603 25.7785 19.8028 26.3214 19C26.0112 20.065 26.0626 21.2852 26.6655 22.2477C27.7642 24.1114 28.8543 25.9792 29.9661 27.8365C29.9749 27.8515 29.9913 27.8815 30 27.8965C27.3765 32.2821 24.8163 36.7063 22.2058 41.0995C21.2873 42.7567 19.011 43.478 17.2744 42.6645C16.0915 42.1572 15.1992 41.031 15.032 39.7711C14.9774 39.1406 14.9644 38.4769 15.2287 37.885C15.5127 37.2309 15.9059 36.6282 16.2662 36.0127C19.1171 31.17 21.9656 26.3262 24.8262 21.4888Z" fill="#01ABE8"/>
<path d="M33.7113 19C37.258 24.9779 40.7599 30.9829 44.2915 36.9695C44.696 37.6249 45.021 38.3553 44.9981 39.1381C45.0407 40.4073 44.37 41.6721 43.2859 42.3639C42.5059 42.8747 41.5355 43.0943 40.6074 42.9625C39.4468 42.8126 38.3639 42.1133 37.7914 41.1077C35.2078 36.7018 32.6055 32.3054 30.0338 27.8932C30.0251 27.8782 30.0088 27.8481 30 27.8331C30.9172 26.3606 31.7559 24.842 32.6579 23.3609C33.0549 22.5962 33.6329 21.8958 33.7778 21.0271C33.8618 20.3535 33.8259 19.6672 33.7113 19Z" fill="#0654A6"/>
<path d="M29.0949 36.1027C30.3337 35.8128 31.7024 36.1443 32.6457 37.0003C33.2993 37.4985 33.6464 38.2866 33.9043 39.0437C34.1743 40.2958 33.8714 41.6709 33.015 42.6442C32.1168 43.6309 30.7106 44.1731 29.3815 43.9503C27.7372 43.7506 26.3651 42.3788 26.0511 40.7755C25.9387 39.8602 25.9839 38.8835 26.4732 38.0735C27.0054 37.0881 27.9907 36.3277 29.0949 36.1027Z" fill="#FBAE3C"/>
</svg>
