<svg width="60" height="60" viewBox="0 0 60 60" fill="none" xmlns="http://www.w3.org/2000/svg">
<circle cx="30" cy="30" r="30" fill="#001689"/>
<path fill-rule="evenodd" clip-rule="evenodd" d="M21.1832 21.9335C21.5251 22.7116 22.0833 23.5106 23.6145 24.589C23.9537 24.8303 24.3314 25.3323 24.0454 26.0387C23.7551 26.7441 23.218 27.7466 23.5379 28.1378C23.8626 28.5282 25.0153 28.7313 25.9523 28.3433C25.9523 28.3433 26.149 28.9537 26.4926 29.3453C26.4926 29.3453 26.3306 29.6821 25.7907 29.5121C25.7907 29.5121 25.9872 30.014 25.7162 30.5533C25.7162 30.5533 25.0877 30.442 24.8182 29.8463C24.8182 29.8463 24.5647 30.3101 24.0611 30.4779C24.0611 30.4779 23.6471 30.2569 23.7394 29.3991C23.7394 29.3991 23.4313 30.1627 22.4974 30.2912C22.4974 30.2912 21.9561 29.5866 22.6577 28.6392C22.6577 28.6392 22.1534 29.1036 21.2387 28.8805C21.2387 28.8805 21.093 28.3982 21.9195 27.7287C21.9195 27.7287 20.9838 27.6914 20.625 26.8743C20.625 26.8743 21.0206 26.3714 21.991 26.4841C21.991 26.4841 21.093 26.2784 20.8942 25.1643C20.8942 25.1643 21.5421 24.7373 22.5683 25.424C22.5683 25.424 22.3858 25.0721 21.9561 24.7194C21.5251 24.3656 21.0022 23.3809 21.1832 21.9335Z" fill="white"/>
<path fill-rule="evenodd" clip-rule="evenodd" d="M24.9489 33.1385C24.8106 32.9512 24.7097 32.7645 24.6355 32.5849C24.7963 33.9363 24.8521 34.8474 25.56 35.723C25.56 35.723 25.9861 35.1374 25.712 33.7146C25.5944 33.6792 25.459 33.6203 25.3314 33.5312C25.3314 33.5312 25.4925 34.109 25.3902 34.6896C25.3902 34.6896 25.1376 34.499 24.9489 33.1385Z" fill="white"/>
<path fill-rule="evenodd" clip-rule="evenodd" d="M23.7228 32.9985C23.6385 32.8885 23.4755 32.655 23.3892 32.4894C23.331 33.2751 23.1292 35.3391 23.8003 35.9864C23.8003 35.9864 24.2602 35.6388 24.4211 32.6252C24.3243 32.7941 24.1531 32.9739 24.0697 33.0726C24.0697 33.0726 24.1819 34.028 23.8501 34.7032C23.8501 34.7032 23.5174 34.4424 23.7228 32.9985Z" fill="white"/>
<path fill-rule="evenodd" clip-rule="evenodd" d="M22.1268 34.5761C22.6883 33.8801 22.8583 31.7931 22.8583 31.7931C22.9364 31.739 23.0139 31.6803 23.0949 31.6152C23.123 31.5884 23.1557 31.5612 23.1854 31.5314C23.1854 31.6067 23.1887 31.6863 23.1958 31.7648C23.1142 33.0214 23.0183 34.3153 22.6378 34.9593C22.2669 35.5912 21.5813 35.9188 21.5813 35.9188C20.9408 34.7398 21.7152 33.1603 22.3663 32.0613C22.4441 32.03 22.5254 31.9907 22.6084 31.9479C22.3811 32.7934 21.9469 33.7999 22.1268 34.5761Z" fill="white"/>
<path fill-rule="evenodd" clip-rule="evenodd" d="M20.5326 30.9549C20.5294 31.0885 20.5537 31.1998 20.5715 31.2546C20.5774 31.2766 20.5873 31.3089 20.6012 31.341C20.0637 31.885 19.6652 32.4062 18.8692 33.5474C18.0717 34.6898 16.8098 34.7355 16.8098 34.7355C16.9324 33.8103 17.1748 33.0796 17.8515 32.2911C18.5264 31.5033 19.3909 30.7832 20.0249 30.3071C20.1869 30.3822 20.4011 30.4318 20.6695 30.3986C20.6902 30.3971 20.7122 30.3948 20.7315 30.3896C20.6472 30.5056 20.5952 30.6205 20.5694 30.7266C20.0868 31.0111 18.6919 31.7406 18.1269 32.9192C18.1269 32.9192 19.0095 32.6313 20.5326 30.9549Z" fill="white"/>
<path fill-rule="evenodd" clip-rule="evenodd" d="M19.5361 29.8035L19.5878 29.7056C19.6083 29.6725 19.624 29.6437 19.6454 29.6163C19.126 29.8239 17.2782 30.5438 16.6808 30.8627C16.0819 31.1842 15.2165 31.9092 14.7461 33.3853C14.7461 33.3853 15.9931 33.4999 17.0224 32.6221C18.0522 31.7405 19.2518 30.5145 19.764 30.1248C19.7124 30.0765 19.6726 30.0286 19.6454 29.9886C19.6454 29.9886 18.2519 31.2612 16.7797 31.8122C16.7797 31.8122 17.0943 31.221 17.6771 30.793C18.3855 30.2737 18.9165 30.099 19.5361 29.8035Z" fill="white"/>
<path fill-rule="evenodd" clip-rule="evenodd" d="M18.4783 28.9313C18.499 28.8805 18.5192 28.8322 18.5403 28.7877C17.9298 28.9145 16.4073 29.1036 15.7251 29.3179C15.0451 29.5349 13.8134 30.0484 13.083 31.4883C13.083 31.4883 14.1553 31.8291 16.1788 30.8469C18.2022 29.8633 18.8376 29.6587 19.2231 29.5529C18.9163 29.53 18.697 29.4228 18.5851 29.3508C17.7779 29.7223 16.6978 30.1607 15.6262 30.1903C15.6262 30.1903 16.1532 29.8055 16.7103 29.5625C17.311 29.3038 17.9743 29.0668 18.4783 28.9313Z" fill="white"/>
<path fill-rule="evenodd" clip-rule="evenodd" d="M18.5294 27.8972C18.727 27.9929 18.879 28.0406 19.1384 28.068C18.9977 28.1631 18.8638 28.2823 18.7443 28.4436C18.0302 28.6559 16.8134 28.8875 14.8072 29.0371C12.8027 29.1845 11.7322 28.8058 11.7322 28.8058C12.4311 28.3646 13.5452 27.9168 14.2996 27.7664C15.0529 27.6156 17.0324 27.633 17.8996 27.5107C17.9091 27.5211 18.0142 27.6087 18.1854 27.7155C17.4559 27.7828 15.9005 27.857 15.0992 28.2785C15.0992 28.2785 16.5789 28.4814 18.5294 27.8972Z" fill="white"/>
<path fill-rule="evenodd" clip-rule="evenodd" d="M18.3783 26.7064C18.4801 26.6447 18.6018 26.5835 18.7516 26.526C17.7352 26.2094 16.3421 25.701 14.2426 25.561C12.7047 25.4566 11.5947 25.548 11.0193 25.701C11.0193 25.701 12.4213 26.7196 14.0218 27.0787C15.6253 27.4395 16.9265 27.2121 17.8773 27.2208C17.9388 27.124 18.0103 27.0141 18.1222 26.9055C17.0093 26.9132 15.16 26.6154 14.4982 26.3871C14.4982 26.3871 16.1115 26.0407 18.3783 26.7064Z" fill="white"/>
<path fill-rule="evenodd" clip-rule="evenodd" d="M18.3703 25.4741C18.3757 25.5039 18.4955 26.0951 19.1591 26.421C17.7325 25.7775 14.9246 25.4069 13.4134 24.7586C11.3734 23.8825 11 22.7901 11 22.7901C12.7667 22.741 14.1945 23.1858 15.2956 23.5356C16.5839 23.9423 18.546 24.6995 19.2328 25.0158C18.9778 25.0258 18.6935 25.1033 18.4557 25.2671C17.4975 24.8869 17.0502 24.7263 16.1803 24.4746C15.4915 24.2755 14.9846 24.2372 14.5546 24.1948C14.5546 24.1948 15.1591 24.6069 16.1548 24.9348C17.1418 25.2616 17.5693 25.3156 18.3703 25.4741Z" fill="white"/>
<path fill-rule="evenodd" clip-rule="evenodd" d="M18.2642 23.867C18.3211 23.9715 18.4892 24.22 18.5565 24.3187C16.3015 23.9289 13.8222 22.1693 13.0557 21.0776C12.2894 19.9862 12.5057 18.3578 12.5057 18.3578C13.2494 18.5115 14.8657 19.9506 15.2842 20.384C15.7038 20.8154 16.9667 22.086 17.8422 22.794L18.1146 23.6132C17.3647 22.9901 16.4752 22.2961 15.9217 21.8649C15.4949 21.5333 14.8559 21.0616 14.2202 20.8388C14.2202 20.8388 14.8055 21.6251 15.278 22.0094C15.8232 22.4538 16.3775 22.8393 16.8325 23.0971C17.237 23.3269 17.4445 23.4564 18.2642 23.867Z" fill="white"/>
<path fill-rule="evenodd" clip-rule="evenodd" d="M24.6233 30.3814C24.6921 30.3188 24.7526 30.2582 24.8002 30.204C24.904 30.3382 25.253 30.7862 25.4255 31.2343C25.5539 31.6161 25.6932 32.1355 25.7614 32.4335C25.8306 32.729 26.0341 33.3491 26.1594 33.561C26.1594 33.561 25.6109 33.6321 25.2041 33.1415C24.8043 32.6609 24.6708 32.1763 24.6073 31.6802C24.555 31.2915 24.5743 30.7522 24.6233 30.3814Z" fill="white"/>
<path fill-rule="evenodd" clip-rule="evenodd" d="M23.7578 30.4553C23.8598 30.5965 23.9578 30.6535 23.9673 30.6599L24.0427 30.6989L24.1184 30.6714C24.1881 30.6502 24.2504 30.6246 24.3086 30.594C24.3893 30.8229 24.4225 30.9331 24.4413 31.1277C24.4665 31.3873 24.5157 31.7955 24.4225 32.1291C24.3086 32.5348 24.0711 32.7835 23.9418 32.9386C23.9418 32.9386 23.5818 32.5302 23.4794 32.1947C23.3725 31.8417 23.3342 31.4318 23.4669 31.0116C23.5394 30.7837 23.6542 30.5751 23.7578 30.4553Z" fill="white"/>
<path fill-rule="evenodd" clip-rule="evenodd" d="M22.5192 30.4944C22.8869 30.4441 23.1644 30.3071 23.3746 30.1484C23.4211 30.2822 23.4936 30.4616 23.4416 30.7162C23.3849 30.9713 23.2146 31.2524 22.9703 31.4564C22.597 31.7612 22.1032 32.0487 21.555 31.9619C21.555 31.9619 21.4292 31.5361 22.5192 30.4944Z" fill="white"/>
<path fill-rule="evenodd" clip-rule="evenodd" d="M22.1063 29.7848C22.1523 30.1626 22.3272 30.3999 22.3384 30.4188C22.2111 30.5766 21.7493 31.3942 20.7871 31.2587C20.7871 31.2587 20.5248 30.7005 21.1673 30.2567C21.6003 29.9565 21.8087 29.895 22.1063 29.7848Z" fill="white"/>
<path fill-rule="evenodd" clip-rule="evenodd" d="M22.1921 29.0852C21.9366 29.1518 21.6021 29.1782 21.1938 29.0788L21.0824 29.052L21.048 28.9409C20.553 29.3569 19.9651 29.4275 19.7627 29.8053C19.7627 29.8053 20.0099 30.275 20.6524 30.1982C21.295 30.1185 21.7761 29.8077 22.1206 29.3628C22.134 29.2968 22.163 29.1703 22.1921 29.0852Z" fill="white"/>
<path fill-rule="evenodd" clip-rule="evenodd" d="M21.0789 28.4994C21.1682 28.3592 21.2318 28.1423 21.4238 27.9231C21 27.847 20.6163 27.8406 20.1179 27.9412C19.5262 28.0546 18.9213 28.1991 18.6189 29.1309C18.6189 29.1309 18.9973 29.4645 19.6891 29.32C20.2767 29.1949 20.7857 28.9352 21.0789 28.4994Z" fill="white"/>
<path fill-rule="evenodd" clip-rule="evenodd" d="M20.8284 27.4904C20.6803 27.356 20.5414 27.1839 20.4438 26.9588L20.3953 26.842C19.8816 26.6265 19.3474 26.5159 18.8212 26.716C18.2977 26.9196 18.1597 27.1505 18.0286 27.3539C18.0286 27.3539 18.609 27.8555 19.2747 27.8729C19.9425 27.8955 20.5598 27.6957 20.8284 27.4904Z" fill="white"/>
<path fill-rule="evenodd" clip-rule="evenodd" d="M20.98 26.4013C21.0684 26.3666 21.1669 26.3347 21.2788 26.3111C21.0547 26.1049 20.8286 25.789 20.7212 25.3186C20.4823 25.3758 19.9231 25.3758 19.6774 25.2799C19.429 25.1824 18.9452 25.1774 18.5671 25.4346C18.5671 25.4346 18.6927 26.1198 19.5468 26.3536C20.3544 26.5721 20.6517 26.5157 20.98 26.4013Z" fill="white"/>
<path fill-rule="evenodd" clip-rule="evenodd" d="M20.6723 25.0672L20.7848 24.9931C20.8006 24.9827 20.9919 24.8614 21.3181 24.8344C21.0433 24.6234 20.3854 24.0552 19.9235 23.7826C19.4145 23.4893 18.5734 23.1006 18.1455 23.0425C18.1455 23.0425 18.5471 24.1298 19.013 24.5696C19.5006 25.0259 19.8395 25.1942 20.6723 25.0672Z" fill="white"/>
<path fill-rule="evenodd" clip-rule="evenodd" d="M21.5416 24.566C21.3341 24.2918 21.1733 23.9126 21.0543 23.4642C20.9581 23.1002 20.7355 22.1962 20.6044 21.9628C20.4735 21.7276 19.9995 20.9093 19.0753 20.6536C19.0753 20.6536 18.8281 21.7229 19.2938 22.5656C19.6938 23.2948 20.518 24.0624 21.5416 24.566Z" fill="white"/>
<path fill-rule="evenodd" clip-rule="evenodd" d="M26.6742 29.5302C26.788 29.6511 26.8763 29.7161 27.0825 29.823C27.0825 29.823 27.378 30.4042 27.0198 31.1073C26.661 31.8097 26.3602 32.5254 26.2163 32.9247C26.2163 32.9247 26.0242 32.8945 25.8106 31.7959C25.6667 31.0509 25.4842 30.8645 25.2927 30.6088C25.5008 30.7171 25.6686 30.7494 25.6829 30.7524L25.8261 30.7773L25.8908 30.6458C26.0183 30.395 26.0579 30.1512 26.0579 29.947C26.0579 29.8806 26.0531 29.818 26.0457 29.7606C26.378 29.7693 26.5548 29.596 26.6238 29.5081C26.6282 29.4987 26.6347 29.4934 26.6378 29.4855L26.6742 29.5302Z" fill="white"/>
<path fill-rule="evenodd" clip-rule="evenodd" d="M18.8148 21.1014C18.8116 21.2048 18.8086 21.3169 18.8116 21.4369L18.8306 21.6994C18.2833 20.9797 17.6304 20.1137 17.0069 19.3125C16.5792 18.7646 16.2173 18.433 15.817 18.1656C16.1524 19.181 16.7605 19.9913 17.189 20.3958C17.6162 20.7997 18.2394 21.4809 18.8436 21.8969L18.9021 22.1032C18.9492 22.2915 19.0217 22.4857 19.1229 22.6678C19.2627 22.924 19.4491 23.1772 19.6675 23.422C19.4921 23.3318 19.2911 23.2344 19.0867 23.1459L18.8994 23.0657C17.2333 22.1536 15.5844 20.2651 14.9145 18.9512C14.2441 17.6373 14.5242 16.1117 14.7005 15.2957C15.4561 15.9573 16.5444 17.2586 17.0184 17.9681C17.6025 18.8365 18.3516 20.0681 18.8127 21.0706L18.8148 21.1014Z" fill="white"/>
<path fill-rule="evenodd" clip-rule="evenodd" d="M42.166 26.7064C42.0655 26.6447 41.9444 26.5835 41.7947 26.526C42.8088 26.2094 44.2044 25.701 46.3017 25.561C47.8405 25.4566 48.9535 25.548 49.5268 25.701C49.5268 25.701 48.1261 26.7196 46.5232 27.0787C44.9208 27.4395 43.6197 27.2121 42.6688 27.2208C42.6068 27.124 42.5347 27.0141 42.4234 26.9055C43.5363 26.9132 45.388 26.6154 46.0483 26.3871C46.0483 26.3871 44.4344 26.0407 42.166 26.7064Z" fill="white"/>
<path fill-rule="evenodd" clip-rule="evenodd" d="M42.1728 25.4741C42.1674 25.5039 42.0484 26.0951 41.3842 26.421C42.8103 25.7775 45.6207 25.4069 47.1296 24.7586C49.1706 23.8825 49.5439 22.7901 49.5439 22.7901C47.7775 22.741 46.3495 23.1858 45.248 23.5356C43.9613 23.9423 41.9971 24.6995 41.3101 25.0158C41.5686 25.0258 41.8497 25.1033 42.0891 25.2671C43.0476 24.8869 43.4935 24.7263 44.365 24.4746C45.0518 24.2755 45.5593 24.2372 45.9891 24.1948C45.9891 24.1948 45.3852 24.6069 44.3889 24.9348C43.4005 25.2616 42.9741 25.3156 42.1728 25.4741Z" fill="white"/>
<path fill-rule="evenodd" clip-rule="evenodd" d="M42.2803 23.867C42.2245 23.9715 42.0541 24.22 41.9883 24.3187C44.2427 23.9289 46.7229 22.1693 47.4884 21.0776C48.2571 19.9862 48.0393 18.3578 48.0393 18.3578C47.2941 18.5115 45.6784 19.9506 45.26 20.384C44.8418 20.8154 43.5781 22.086 42.702 22.794L42.4293 23.6132C43.1787 22.9901 44.0681 22.2961 44.6241 21.8649C45.0499 21.5333 45.6876 21.0616 46.3234 20.8388C46.3234 20.8388 45.7387 21.6251 45.2659 22.0094C44.7235 22.4538 44.1687 22.8393 43.7117 23.0971C43.3075 23.3269 43.1007 23.4564 42.2803 23.867Z" fill="white"/>
<path fill-rule="evenodd" clip-rule="evenodd" d="M41.7349 21.1014C41.7379 21.2048 41.7406 21.3169 41.7359 21.4369L41.7165 21.6994C42.2632 20.9797 42.9189 20.1137 43.5415 19.3125C43.9695 18.7646 44.3321 18.433 44.7327 18.1656C44.3938 19.181 43.7894 19.9913 43.3592 20.3958C42.9312 20.7997 42.3119 21.4809 41.7059 21.8969L41.6464 22.1032C41.5993 22.2915 41.5278 22.4857 41.4269 22.6678C41.2851 22.924 41.102 23.1772 40.8809 23.422C41.0568 23.3318 41.2575 23.2344 41.461 23.1459L41.6486 23.0657C43.315 22.1536 44.966 20.2651 45.6338 18.9512C46.3004 17.6373 46.0261 16.1117 45.8484 15.2957C45.0918 15.9573 44.0035 17.2586 43.5286 17.9681C42.9448 18.8365 42.1982 20.0681 41.7349 21.0706V21.1014Z" fill="white"/>
<path fill-rule="evenodd" clip-rule="evenodd" d="M20.9376 31.4799C20.2517 32.1879 18.8052 33.7777 18.94 35.5013C18.94 35.5013 20.2849 35.0678 20.8379 34.0504C21.3925 33.0344 21.7345 32.397 21.9659 32.1681C21.8166 32.1879 21.6671 32.1879 21.5223 32.1626L21.4012 32.1432C21.0593 32.7852 20.3836 33.8332 19.7754 34.1993C19.7754 34.1993 19.6199 33.3494 21.4083 31.6264C21.4329 31.556 21.4694 31.4741 21.5202 31.3856C21.3569 31.4477 21.1697 31.482 20.9607 31.4784L20.9376 31.4799Z" fill="white"/>
<path fill-rule="evenodd" clip-rule="evenodd" d="M39.3626 21.9335C39.0213 22.7116 38.4603 23.5106 36.9347 24.589C36.5915 24.8303 36.2145 25.3323 36.5016 26.0387C36.7882 26.7441 37.3299 27.7466 37.0048 28.1378C36.682 28.5282 35.5308 28.7313 34.593 28.3433C34.593 28.3433 34.3971 28.9537 34.0554 29.3453C34.0554 29.3453 34.2155 29.6821 34.7568 29.5121C34.7568 29.5121 34.5592 30.014 34.8284 30.5533C34.8284 30.5533 35.4582 30.442 35.7264 29.8463C35.7264 29.8463 35.9787 30.3101 36.4846 30.4779C36.4846 30.4779 36.8999 30.2569 36.8081 29.3991C36.8081 29.3991 37.1128 30.1627 38.0507 30.2912C38.0507 30.2912 38.5904 29.5866 37.8866 28.6392C37.8866 28.6392 38.3913 29.1036 39.3089 28.8805C39.3089 28.8805 39.4527 28.3982 38.6229 27.7287C38.6229 27.7287 39.562 27.6914 39.9223 26.8743C39.9223 26.8743 39.5254 26.3714 38.5547 26.4841C38.5547 26.4841 39.4527 26.2784 39.6507 25.1643C39.6507 25.1643 39.0029 24.7373 37.9786 25.424C37.9786 25.424 38.1571 25.0721 38.5885 24.7194C39.0213 24.3656 39.5442 23.3809 39.3626 21.9335Z" fill="white"/>
<path fill-rule="evenodd" clip-rule="evenodd" d="M35.5978 33.1385C35.7337 32.9512 35.8342 32.7645 35.9128 32.5849C35.7516 33.9363 35.6931 34.8474 34.9856 35.723C34.9856 35.723 34.5599 35.1374 34.8327 33.7146C34.9534 33.6792 35.0852 33.6203 35.2156 33.5312C35.2156 33.5312 35.0537 34.109 35.1534 34.6896C35.1534 34.6896 35.4118 34.499 35.5978 33.1385Z" fill="white"/>
<path fill-rule="evenodd" clip-rule="evenodd" d="M36.8217 32.9985C36.9067 32.8885 37.071 32.655 37.1547 32.4894C37.2132 33.2751 37.4132 35.3391 36.743 35.9864C36.743 35.9864 36.2834 35.6388 36.1211 32.6252C36.2193 32.7941 36.3897 32.9739 36.471 33.0726C36.471 33.0726 36.3616 34.028 36.6933 34.7032C36.6933 34.7032 37.0259 34.4424 36.8217 32.9985Z" fill="white"/>
<path fill-rule="evenodd" clip-rule="evenodd" d="M38.4189 34.5761C37.8529 33.8801 37.685 31.7931 37.685 31.7931C37.6081 31.739 37.5276 31.6803 37.4522 31.6152C37.4187 31.5884 37.3886 31.5612 37.3586 31.5314C37.3586 31.6067 37.3558 31.6863 37.3494 31.7648C37.4283 33.0214 37.5277 34.3153 37.9057 34.9593C38.2776 35.5912 38.9607 35.9188 38.9607 35.9188C39.6036 34.7398 38.8279 33.1603 38.1788 32.0613C38.098 32.03 38.0182 31.9907 37.9376 31.9479C38.1639 32.7934 38.5975 33.7999 38.4189 34.5761Z" fill="white"/>
<path fill-rule="evenodd" clip-rule="evenodd" d="M40.0072 30.9549C40.0132 31.0885 39.9877 31.1998 39.9704 31.2546C39.9639 31.2766 39.9538 31.3089 39.942 31.341C40.4771 31.885 40.8769 32.4062 41.6725 33.5474C42.47 34.6898 43.7322 34.7355 43.7322 34.7355C43.6113 33.8103 43.3672 33.0796 42.6914 32.2911C42.0163 31.5033 41.1534 30.7832 40.5174 30.3071C40.3538 30.3822 40.1417 30.4318 39.8729 30.3986C39.8508 30.3971 39.8294 30.3948 39.8096 30.3896C39.8938 30.5056 39.945 30.6205 39.9737 30.7266C40.4543 31.0111 41.8526 31.7406 42.4156 32.9192C42.4156 32.9192 41.5319 32.6313 40.0072 30.9549Z" fill="white"/>
<path fill-rule="evenodd" clip-rule="evenodd" d="M41.0099 29.8035L40.9567 29.7056C40.9391 29.6725 40.9212 29.6437 40.901 29.6163C41.4191 29.8239 43.2682 30.5438 43.8652 30.8627C44.4626 31.1842 45.3266 31.9092 45.7958 33.3853C45.7958 33.3853 44.5508 33.4999 43.521 32.6221C42.4927 31.7405 41.2912 30.5145 40.781 30.1248C40.8322 30.0765 40.8704 30.0286 40.901 29.9886C40.901 29.9886 42.2934 31.2612 43.7642 31.8122C43.7642 31.8122 43.4509 31.221 42.8708 30.793C42.1596 30.2737 41.6305 30.099 41.0099 29.8035Z" fill="white"/>
<path fill-rule="evenodd" clip-rule="evenodd" d="M42.0672 28.9313C42.0485 28.8805 42.0284 28.8322 42.0063 28.7877C42.6166 28.9145 44.1413 29.1036 44.8234 29.3179C45.5012 29.5349 46.7341 30.0484 47.4651 31.4883C47.4651 31.4883 46.3928 31.8291 44.3673 30.8469C42.3427 29.8633 41.711 29.6587 41.3252 29.5529C41.6306 29.53 41.8497 29.4228 41.9636 29.3508C42.7708 29.7223 43.8512 30.1607 44.922 30.1903C44.922 30.1903 44.3921 29.8055 43.8381 29.5625C43.2339 29.3038 42.5719 29.0668 42.0672 28.9313Z" fill="white"/>
<path fill-rule="evenodd" clip-rule="evenodd" d="M42.0175 27.8972C41.818 27.9929 41.6666 28.0406 41.4077 28.068C41.5487 28.1631 41.6835 28.2823 41.8042 28.4436C42.5172 28.6559 43.7308 28.8875 45.7381 29.0371C47.7437 29.1845 48.8127 28.8058 48.8127 28.8058C48.1147 28.3646 47.0015 27.9168 46.2479 27.7664C45.4923 27.6156 43.5131 27.633 42.6447 27.5107C42.6353 27.5211 42.5286 27.6087 42.3595 27.7155C43.0905 27.7828 44.6448 27.857 45.4472 28.2785C45.4472 28.2785 43.9666 28.4814 42.0175 27.8972Z" fill="white"/>
<path fill-rule="evenodd" clip-rule="evenodd" d="M35.9201 30.3814C35.8518 30.3188 35.7933 30.2582 35.7411 30.204C35.6391 30.3382 35.2912 30.7862 35.1212 31.2343C34.9906 31.6161 34.8513 32.1355 34.7843 32.4335C34.7128 32.729 34.508 33.3491 34.3831 33.561C34.3831 33.561 34.9334 33.6321 35.3403 33.1415C35.74 32.6609 35.8746 32.1763 35.9394 31.6802C35.986 31.2915 35.9725 30.7522 35.9201 30.3814Z" fill="white"/>
<path fill-rule="evenodd" clip-rule="evenodd" d="M36.7876 30.4553C36.6864 30.5965 36.5892 30.6535 36.5793 30.6599L36.5059 30.6989L36.4269 30.6714C36.3609 30.6502 36.2985 30.6246 36.2385 30.594C36.1578 30.8229 36.1276 30.9331 36.1062 31.1277C36.0788 31.3873 36.0314 31.7955 36.1234 32.1291C36.2395 32.5348 36.4733 32.7835 36.6047 32.9386C36.6047 32.9386 36.9647 32.5302 37.0683 32.1947C37.1747 31.8417 37.2135 31.4318 37.0829 31.0116C37.0091 30.7837 36.8906 30.5751 36.7876 30.4553Z" fill="white"/>
<path fill-rule="evenodd" clip-rule="evenodd" d="M38.0271 30.4944C37.6582 30.4441 37.3816 30.3071 37.1702 30.1484C37.1252 30.2822 37.0512 30.4616 37.1062 30.7162C37.159 30.9713 37.3299 31.2524 37.5791 31.4564C37.9467 31.7612 38.4434 32.0487 38.9915 31.9619C38.9915 31.9619 39.1174 31.5361 38.0271 30.4944Z" fill="white"/>
<path fill-rule="evenodd" clip-rule="evenodd" d="M38.4426 29.7848C38.3992 30.1626 38.2239 30.3999 38.2097 30.4188C38.3378 30.5766 38.8 31.3942 39.7677 31.2587C39.7677 31.2587 40.0253 30.7005 39.3867 30.2567C38.9483 29.9565 38.7424 29.895 38.4426 29.7848Z" fill="white"/>
<path fill-rule="evenodd" clip-rule="evenodd" d="M38.3552 29.0852C38.6123 29.1518 38.9479 29.1782 39.3572 29.0788L39.4685 29.052L39.5004 28.9409C39.9968 29.3569 40.585 29.4275 40.787 29.8053C40.787 29.8053 40.5397 30.275 39.8985 30.1982C39.256 30.1185 38.7714 29.8077 38.4279 29.3628C38.4158 29.2968 38.3882 29.1703 38.3552 29.0852Z" fill="white"/>
<path fill-rule="evenodd" clip-rule="evenodd" d="M39.4674 28.4994C39.3751 28.3592 39.3103 28.1423 39.1199 27.9231C39.5475 27.847 39.9291 27.8406 40.4262 27.9412C41.019 28.0546 41.6232 28.1991 41.9268 29.1309C41.9268 29.1309 41.5447 29.4645 40.8534 29.32C40.2687 29.1949 39.7585 28.9352 39.4674 28.4994Z" fill="white"/>
<path fill-rule="evenodd" clip-rule="evenodd" d="M39.7175 27.4904C39.8669 27.356 40.0038 27.1839 40.1028 26.9588L40.1512 26.842C40.6662 26.6265 41.2016 26.5159 41.7232 26.716C42.2492 26.9196 42.3859 27.1505 42.5213 27.3539C42.5213 27.3539 41.9399 27.8555 41.2706 27.8729C40.6033 27.8955 39.9862 27.6957 39.7175 27.4904Z" fill="white"/>
<path fill-rule="evenodd" clip-rule="evenodd" d="M39.562 26.4013C39.4729 26.3666 39.3741 26.3347 39.2617 26.3111C39.4899 26.1049 39.7136 25.789 39.8223 25.3186C40.0606 25.3758 40.6203 25.3758 40.8672 25.2799C41.1136 25.1824 41.5978 25.1774 41.9754 25.4346C41.9754 25.4346 41.8525 26.1198 40.994 26.3536C40.1855 26.5721 39.8891 26.5157 39.562 26.4013Z" fill="white"/>
<path fill-rule="evenodd" clip-rule="evenodd" d="M39.8689 25.0672L39.7574 24.9931C39.741 24.9827 39.5499 24.8614 39.2214 24.8344C39.4989 24.6234 40.153 24.0552 40.6201 23.7826C41.1279 23.4893 41.9678 23.1006 42.3995 23.0425C42.3995 23.0425 41.9964 24.1298 41.5274 24.5696C41.0427 25.0259 40.7024 25.1942 39.8689 25.0672Z" fill="white"/>
<path fill-rule="evenodd" clip-rule="evenodd" d="M39.0049 24.566C39.2124 24.2918 39.3729 23.9126 39.4919 23.4642C39.5905 23.1002 39.8119 22.1962 39.944 21.9628C40.0766 21.7276 40.5487 20.9093 41.4735 20.6536C41.4735 20.6536 41.7198 21.7229 41.254 22.5656C40.8516 23.2948 40.0306 24.0624 39.0049 24.566Z" fill="white"/>
<path fill-rule="evenodd" clip-rule="evenodd" d="M33.8728 29.5302C33.7536 29.6511 33.6656 29.7161 33.4618 29.823C33.4618 29.823 33.1648 30.4042 33.5239 31.1073C33.8805 31.8097 34.1821 32.5254 34.328 32.9247C34.328 32.9247 34.5204 32.8945 34.7328 31.7959C34.8779 31.0509 35.0614 30.8645 35.2501 30.6088C35.042 30.7171 34.8768 30.7494 34.8614 30.7524L34.7191 30.7773L34.6529 30.6458C34.5239 30.395 34.4892 30.1512 34.4892 29.947C34.4892 29.8806 34.4919 29.818 34.4987 29.7606C34.1659 29.7693 33.9882 29.596 33.9223 29.5081C33.9146 29.4987 33.909 29.4934 33.9054 29.4855L33.8728 29.5302Z" fill="white"/>
<path fill-rule="evenodd" clip-rule="evenodd" d="M39.604 31.4799C40.2895 32.1879 41.7373 33.7777 41.5995 35.5013C41.5995 35.5013 40.2548 35.0678 39.7037 34.0504C39.1486 33.0344 38.8086 32.397 38.5757 32.1681C38.7229 32.1879 38.8721 32.1879 39.0187 32.1626L39.1424 32.1432C39.4824 32.7852 40.158 33.8332 40.7668 34.1993C40.7668 34.1993 40.9212 33.3494 39.1335 31.6264C39.1087 31.556 39.0706 31.4741 39.0215 31.3856C39.1843 31.4477 39.3713 31.482 39.5797 31.4784L39.604 31.4799Z" fill="white"/>
<path fill-rule="evenodd" clip-rule="evenodd" d="M29.2209 17.7267C29.2209 17.5999 29.692 17.4945 30.271 17.4945C30.8515 17.4945 31.321 17.5999 31.321 17.7267C31.321 17.8528 30.8515 17.9571 30.271 17.9571C29.692 17.9571 29.2209 17.8528 29.2209 17.7267Z" fill="white"/>
<path fill-rule="evenodd" clip-rule="evenodd" d="M30.4792 18.2348C30.4792 18.3524 30.3885 18.4479 30.274 18.4479C30.1603 18.4479 30.0659 18.3524 30.0659 18.2348C30.0659 18.1175 30.1603 18.0224 30.274 18.0224C30.3885 18.0224 30.4792 18.1175 30.4792 18.2348Z" fill="white"/>
<path fill-rule="evenodd" clip-rule="evenodd" d="M29.1452 17.5011C28.7977 16.6425 28.5627 16.0074 28.5715 15.7954C28.5774 15.6675 28.7259 15.572 28.8668 15.5279C29.0043 15.4824 29.1274 15.4739 29.2203 15.5471C29.4028 15.6909 29.5702 16.8514 29.6337 17.3333C29.4574 17.3679 29.3505 17.3913 29.1452 17.5011Z" fill="white"/>
<path fill-rule="evenodd" clip-rule="evenodd" d="M29.784 17.315C29.8718 17.3035 29.9629 17.2994 30.0549 17.2954C30.0002 16.8346 29.8444 16.0664 29.7552 15.7651C29.6633 15.462 29.5476 15.2441 29.355 15.1892C29.355 15.1892 29.5046 15.6117 29.5874 16.0466C29.6685 16.4835 29.7305 16.8995 29.784 17.315Z" fill="white"/>
<path fill-rule="evenodd" clip-rule="evenodd" d="M28.6809 18.8539C29.0663 18.7603 29.4606 18.335 29.4606 18.335C28.838 18.4275 28.6809 18.8539 28.6809 18.8539ZM29.2577 18.8152C28.7204 19.1377 28.1191 19.089 28.1191 19.089C28.2356 18.8688 28.3454 18.6652 28.6809 18.418C29.0168 18.1697 29.5651 18.1078 29.78 18.1384C29.7324 18.3041 29.5136 18.6605 29.2577 18.8152Z" fill="white"/>
<path fill-rule="evenodd" clip-rule="evenodd" d="M27.2497 19.7264V19.6817C26.7217 19.7513 26.0996 19.723 26.0996 19.723C26.1311 19.9255 26.2133 20.0792 26.3521 20.1728C26.3859 19.7309 27.2497 19.7264 27.2497 19.7264ZM25.4978 19.1422C25.4978 19.1422 26.1651 19.3979 26.8337 19.3656C27.4998 19.3303 28.7312 19.3162 29.1274 19.1165C29.1274 19.1165 29.0633 19.3752 28.7458 19.5239C28.7458 19.5239 28.9132 19.5239 29.076 19.672C29.076 19.672 28.98 19.8862 28.6964 19.999C28.6964 19.999 29.2052 20.5438 29.7509 20.5048C29.7509 20.5048 29.5001 20.8276 28.9419 20.7031C28.3839 20.5793 28.2052 20.2568 28.1108 20.133C28.1108 20.133 28.1833 20.4414 28.1489 20.5655C28.1489 20.5655 27.904 20.5502 27.7132 20.3025C27.7132 20.3025 27.8518 20.5502 27.8806 20.7595C27.8806 20.7595 27.7268 20.7774 27.4512 20.6097C27.4512 20.6097 27.509 20.764 27.5195 20.941C27.5195 20.941 26.8751 20.7289 26.5629 20.4264C26.5629 20.4264 26.5589 20.635 26.5745 20.7531C26.5745 20.7531 25.5743 20.6489 25.4978 19.1422Z" fill="white"/>
<path fill-rule="evenodd" clip-rule="evenodd" d="M25.343 19.2472C25.3679 19.5732 25.4489 19.8946 25.5593 20.1229C25.5593 20.1229 25.166 19.818 25.0702 19.5585C24.972 19.3013 24.9488 19.1226 25.343 19.2472Z" fill="white"/>
<path fill-rule="evenodd" clip-rule="evenodd" d="M24.5542 20.4856C24.6475 20.4856 24.7213 20.4115 24.7213 20.3173C24.7213 20.223 24.6475 20.1479 24.5542 20.1479C24.4658 20.1479 24.394 20.223 24.394 20.3173C24.394 20.4115 24.4658 20.4856 24.5542 20.4856ZM25.5182 20.2877C25.7815 20.4115 26.0159 20.7051 26.0159 20.7051C25.617 20.7993 25.4402 20.917 25.4402 20.917C24.6759 20.3613 24.0465 20.92 24.0465 20.92C23.633 20.6802 23.5538 20.0892 23.7606 19.7775C23.9669 19.4637 24.4329 19.5188 24.6539 19.5735C24.794 20.0303 25.2811 20.1767 25.5182 20.2877Z" fill="white"/>
<path fill-rule="evenodd" clip-rule="evenodd" d="M26.1058 20.8074C26.1058 20.8074 26.3833 21.1906 26.5875 21.3591C26.5875 21.3591 25.5592 21.3491 25.3001 22.2677C25.3001 22.2677 24.9437 21.705 25.204 21.3382C25.4845 20.943 25.741 20.8943 26.1058 20.8074Z" fill="white"/>
<path fill-rule="evenodd" clip-rule="evenodd" d="M27.2319 21.0355C27.2319 21.0355 27.5644 21.1367 27.6753 21.1665C27.6753 21.1665 27.6783 20.9682 27.672 20.8725C27.7721 20.8978 27.8961 20.9306 28.003 20.9416C28.003 20.9416 28.3337 21.705 28.5929 22.0133C28.5929 22.0133 28.6082 22.1826 28.4636 22.4398C28.4636 22.4398 28.2753 21.9881 27.9388 21.6258C27.7489 21.4231 27.627 21.3193 27.2319 21.0355Z" fill="white"/>
<path fill-rule="evenodd" clip-rule="evenodd" d="M26.3582 20.8724C26.466 20.9023 26.9966 21.074 27.2507 21.2651C27.5738 21.5019 27.7953 21.7752 27.7596 22.2452C27.7596 22.2452 27.5011 21.8725 27.2139 21.705C26.987 21.5706 26.5754 21.2 26.3582 20.8724Z" fill="white"/>
<path fill-rule="evenodd" clip-rule="evenodd" d="M26.3665 17.419C26.464 17.419 26.6531 17.4673 26.6531 17.629C26.6531 17.7935 26.4091 18.1868 26.342 18.3609H26.3357C26.2712 18.1868 26.0229 17.7935 26.0229 17.629C26.0229 17.4673 26.215 17.419 26.3124 17.419H26.3665Z" fill="white"/>
<path fill-rule="evenodd" clip-rule="evenodd" d="M26.1508 18.6877C26.1054 18.4588 26.0172 17.8646 25.8816 17.7336C25.7523 17.6074 25.5591 17.5959 25.4653 17.601C25.3673 17.6074 25.2676 17.7093 25.3077 17.8418C25.3454 17.979 25.7712 18.6364 25.8268 18.7196C25.9258 18.7017 25.9072 18.7086 26.1508 18.6877Z" fill="white"/>
<path fill-rule="evenodd" clip-rule="evenodd" d="M26.5269 18.6877C26.5747 18.4588 26.6608 17.8646 26.7973 17.7336C26.9257 17.6074 27.1195 17.5959 27.2141 17.601C27.311 17.6074 27.4129 17.7093 27.3739 17.8418C27.3322 17.979 26.9073 18.6364 26.8505 18.7196C26.7528 18.7017 26.7712 18.7086 26.5269 18.6877Z" fill="white"/>
<path fill-rule="evenodd" clip-rule="evenodd" d="M26.8043 16.6206H26.4718V16.2426H26.2045V16.6206H25.8696V16.8596H26.2045V17.3031H26.4718V16.8596H26.8043V16.6206Z" fill="white"/>
<path fill-rule="evenodd" clip-rule="evenodd" d="M22.7776 19.0648C22.7776 18.9897 22.7809 18.9173 22.7916 18.8452C22.8166 18.6604 22.8187 18.5036 22.7993 18.3717C22.5601 18.4674 22.3987 18.5265 22.0698 19.0748C22.0698 19.0748 22.5943 18.7414 22.7776 19.0648Z" fill="white"/>
<path fill-rule="evenodd" clip-rule="evenodd" d="M23.2371 19.932C23.2439 19.7961 23.3311 19.3657 23.4407 19.0647C23.5742 18.6909 23.4965 18.1516 23.3344 17.8239C23.1792 17.508 23.0943 17.2108 23.1201 16.8832C23.1201 16.8832 22.8121 16.9904 22.6319 17.1044C22.6037 17.4844 22.8183 17.8648 22.9204 18.0801C23.0412 18.3354 23.016 18.6689 22.9895 18.8726C22.9433 19.2181 23.0115 19.5861 23.2371 19.932Z" fill="white"/>
<path fill-rule="evenodd" clip-rule="evenodd" d="M23.2776 17.0289C23.2652 16.985 23.2652 16.8652 23.288 16.8172C23.288 16.8172 23.7783 16.3257 24.1891 16.243C24.4479 16.187 24.6075 16.306 24.6853 16.3721C24.6853 16.3721 24.5416 16.3549 24.322 16.5397C24.1015 16.7233 23.8285 16.9442 23.6245 16.9999C23.4195 17.0557 23.377 17.0391 23.2776 17.0289Z" fill="white"/>
<path fill-rule="evenodd" clip-rule="evenodd" d="M24.7238 16.409C24.9057 16.5987 25.0627 16.8004 25.0586 16.9742C25.0562 17.1548 24.8526 17.6078 24.7469 17.7799C24.6404 17.9518 24.4839 18.1783 24.5018 18.4526C24.5115 18.5889 24.6042 18.7296 24.7134 18.8461C24.7134 18.8461 24.1142 18.6996 24.04 18.3177C23.9765 17.9762 24.1183 17.7378 24.2148 17.5489C24.3033 17.3703 24.579 16.9563 24.6499 16.7836C24.7134 16.627 24.7469 16.4966 24.7238 16.409Z" fill="white"/>
<path fill-rule="evenodd" clip-rule="evenodd" d="M28.2207 20.7097C28.3392 21.1477 28.5431 21.5587 28.744 21.8808C28.9245 22.1763 29.0389 22.6528 29.022 22.815C29.022 22.815 29.2924 22.1991 29.1559 21.7638C29.0461 21.4259 28.7565 20.9213 28.2207 20.7097Z" fill="white"/>
<path fill-rule="evenodd" clip-rule="evenodd" d="M28.8953 20.853C28.8953 20.853 29.3068 20.8615 29.4982 20.9915C29.7446 21.1591 29.979 21.5272 30.0704 21.9676C30.0704 21.9676 29.6549 21.8931 29.4511 21.6823C29.2445 21.4706 28.9917 21.1545 28.8953 20.853Z" fill="white"/>
<path fill-rule="evenodd" clip-rule="evenodd" d="M26.7695 21.6194C26.6905 21.6258 26.4799 21.6762 26.3772 21.7081C26.3772 21.7081 26.7264 21.813 26.9016 21.9628C27.0513 22.0891 27.1796 22.2846 27.2384 22.6152C27.3244 23.0769 27.5862 23.5734 27.6649 23.723L27.6969 23.7166C27.6495 23.3988 27.8397 22.7399 27.8912 22.644C27.8912 22.644 27.6125 22.4653 27.4848 22.2791C27.391 22.1415 27.2269 21.9128 26.7695 21.6194Z" fill="white"/>
<path fill-rule="evenodd" clip-rule="evenodd" d="M28.5898 22.6104C28.6906 22.8525 28.9627 23.2822 28.8357 23.729C28.7093 24.1773 28.4247 24.3694 28.2501 24.7506C28.2501 24.7506 28.1136 24.0635 28.1421 23.5356C28.1734 23.0055 28.3603 22.8015 28.5898 22.6104Z" fill="white"/>
<path fill-rule="evenodd" clip-rule="evenodd" d="M29.3766 22.6279C29.3766 22.6279 29.785 23.4454 29.859 23.7656C29.93 24.083 29.8641 24.2945 29.7239 24.4883C29.5883 24.6793 29.3521 24.887 29.1339 25.2906C29.1339 25.2906 28.882 24.9468 28.8524 24.7672C28.8233 24.5875 28.8704 24.1581 28.9252 23.9794C28.9786 23.7969 29.1942 23.2182 29.3766 22.6279Z" fill="white"/>
<path fill-rule="evenodd" clip-rule="evenodd" d="M29.5857 25.2368C29.4969 25.337 29.0198 25.9289 28.9556 26.1014C28.8912 26.2731 28.7808 26.5997 28.928 26.8281C29.0776 27.0554 29.4183 27.4158 29.7127 27.5694C29.7127 27.5694 29.3916 27.05 29.4257 26.6241C29.4441 26.3514 29.6494 26.1085 29.6886 25.9419C29.7276 25.7776 29.7029 25.497 29.5857 25.2368Z" fill="white"/>
<path fill-rule="evenodd" clip-rule="evenodd" d="M28.653 24.9105C28.7262 25.0155 28.8539 25.2706 28.8719 25.5183C28.8894 25.7627 28.8506 25.9593 28.7209 26.3177C28.5591 26.77 28.3048 27.2734 28.1869 27.5006C28.1869 27.5006 27.9635 27.1698 27.8394 26.8743C27.8394 26.8743 28.1897 26.3782 28.3402 26.0284C28.512 25.6161 28.5838 25.2349 28.653 24.9105Z" fill="white"/>
<path fill-rule="evenodd" clip-rule="evenodd" d="M28.4898 24.7195C28.4898 24.7195 28.3382 25.8838 27.6749 26.7467C27.2256 27.3313 26.8611 27.5353 26.6192 27.5353C26.2554 27.5353 25.8889 27.2226 25.7675 26.8626C25.6435 26.5057 25.6841 25.9485 25.9196 25.7509C25.9196 25.7509 26.1366 26.4495 26.6041 26.4748C27.1323 26.5057 27.8105 25.8947 28.4898 24.7195Z" fill="white"/>
<path fill-rule="evenodd" clip-rule="evenodd" d="M27.9427 24.2329C27.9981 24.4407 28.0156 24.76 27.9427 25.0609C27.8879 25.2904 27.7534 25.5878 27.4938 25.7561C27.2693 25.9004 26.7385 25.9352 26.5383 25.4193C26.5383 25.4193 27.505 25.4944 27.9427 24.2329Z" fill="white"/>
<path fill-rule="evenodd" clip-rule="evenodd" d="M29.5226 28.9242C29.6541 29.2745 30.1253 29.7166 30.1242 29.9902C30.117 30.7131 29.8087 31.156 29.7369 31.3939C29.7369 31.3939 29.1758 30.9346 29.0753 30.4081C29.0243 30.1376 29.0839 29.3256 29.5226 28.9242Z" fill="white"/>
<path fill-rule="evenodd" clip-rule="evenodd" d="M28.8962 29.4364C28.9608 29.2479 29.1687 28.7363 29.407 28.558C29.407 28.558 29.712 27.6307 28.7301 27.059C28.7301 27.059 28.3259 27.6113 28.2195 28.1315C28.1117 28.6556 28.646 28.9673 28.8962 29.4364Z" fill="white"/>
<path fill-rule="evenodd" clip-rule="evenodd" d="M27.6696 27.0913C27.5115 27.2903 27.2878 27.5615 27.115 27.6464C27.115 27.6464 27.0563 28.061 27.088 28.337C27.1406 28.7465 27.3929 29.1632 27.5027 29.4689C27.5027 29.4689 27.9321 28.8896 27.9814 28.5495C28.0304 28.2084 28.0241 27.9285 28.0405 27.7649C28.0405 27.7649 27.8009 27.3634 27.6696 27.0913Z" fill="white"/>
<path fill-rule="evenodd" clip-rule="evenodd" d="M26.5336 29.0816C26.4118 28.889 26.0201 28.188 26.0151 27.6768C26.0151 27.6768 26.4988 27.9427 26.9045 27.7466C26.9045 27.7466 26.9568 28.4123 26.8803 28.6363C26.814 28.819 26.7316 28.9273 26.5336 29.0816Z" fill="white"/>
<path fill-rule="evenodd" clip-rule="evenodd" d="M26.6494 29.2228C26.7276 29.1513 26.9212 28.9681 27.0023 28.8717C27.0023 28.8717 27.323 29.4791 27.3776 29.6572C27.3776 29.6572 27.2165 29.7004 27.0393 29.5678C26.8639 29.4353 26.8229 29.3991 26.6494 29.2228Z" fill="white"/>
<path fill-rule="evenodd" clip-rule="evenodd" d="M28.1362 28.8659C28.0981 29.0197 27.578 29.7643 27.4888 29.856C27.4888 29.856 27.5269 30.1257 27.721 30.5148C27.9127 30.901 28.1808 31.1737 28.3239 31.3109C28.3239 31.3109 28.6464 30.7333 28.7414 30.4808C28.8474 30.19 28.8358 29.9038 28.7907 29.7966C28.6807 29.5449 28.3046 29.1813 28.1362 28.8659Z" fill="white"/>
<path fill-rule="evenodd" clip-rule="evenodd" d="M28.9175 30.8165C29.0325 31.0554 29.3788 31.449 29.4327 31.7599C29.4761 32.0041 29.438 32.2038 29.3735 32.3749C29.3081 32.5396 29.1015 32.8685 28.9626 33.1188C28.9626 33.1188 28.4876 32.6564 28.384 32.3262C28.3045 32.0779 28.3345 31.725 28.4478 31.5056C28.5612 31.2842 28.809 31.045 28.9175 30.8165Z" fill="white"/>
<path fill-rule="evenodd" clip-rule="evenodd" d="M27.5745 30.7491C27.6963 31.0276 27.9903 31.3033 28.0577 31.5455C28.1359 31.8325 28.162 32.0137 28.0279 32.3483C27.9079 32.6398 27.7637 32.8119 27.7162 32.9906C27.7162 32.9906 27.3304 32.4745 27.2654 32.2605C27.2019 32.0465 27.1811 31.6939 27.2606 31.471C27.3381 31.2446 27.4787 30.9549 27.5745 30.7491Z" fill="white"/>
<path fill-rule="evenodd" clip-rule="evenodd" d="M29.4734 32.7112C29.4734 32.7112 28.809 33.5383 28.8245 33.9766C28.8444 34.522 29.1954 34.8867 29.2443 35.222C29.2443 35.222 29.5915 34.816 29.7255 34.5431C29.8741 34.2374 29.9864 33.9766 29.9501 33.6292C29.908 33.2811 29.8199 33.0592 29.4734 32.7112Z" fill="white"/>
<path fill-rule="evenodd" clip-rule="evenodd" d="M28.2487 32.6299C28.354 32.7882 28.6491 33.329 28.5663 33.6489C28.4829 33.9728 28.1562 34.4261 28.0456 34.6188C28.0456 34.6188 27.784 34.0638 27.7238 33.8081C27.6658 33.5554 27.7196 33.1392 28.2487 32.6299Z" fill="white"/>
<path fill-rule="evenodd" clip-rule="evenodd" d="M30.2813 16.8314C30.3264 16.5206 30.6756 15.8524 30.6756 15.5615C30.6756 15.332 30.4959 15.1467 30.2749 15.1467C30.051 15.1467 29.8723 15.332 29.8723 15.5615C29.8723 15.8524 30.2243 16.5206 30.2679 16.8314H30.2813Z" fill="white"/>
<path fill-rule="evenodd" clip-rule="evenodd" d="M31.3978 17.5011C31.7481 16.6425 31.9801 16.0074 31.9711 15.7954C31.9659 15.6675 31.8177 15.572 31.6797 15.5279C31.5391 15.4824 31.4138 15.4739 31.3227 15.5471C31.1415 15.6909 30.9711 16.8514 30.9089 17.3333C31.0876 17.3679 31.1943 17.3913 31.3978 17.5011Z" fill="white"/>
<path fill-rule="evenodd" clip-rule="evenodd" d="M30.7609 17.315C30.6724 17.3035 30.5814 17.2994 30.4912 17.2954C30.547 16.8346 30.6997 16.0664 30.7911 15.7651C30.8805 15.462 30.9959 15.2441 31.1906 15.1892C31.1906 15.1892 31.0402 15.6117 30.9582 16.0466C30.8772 16.4835 30.8143 16.8995 30.7609 17.315Z" fill="white"/>
<path fill-rule="evenodd" clip-rule="evenodd" d="M31.0835 18.3348C31.0835 18.3348 31.4754 18.7602 31.8628 18.8538C31.8628 18.8538 31.7041 18.4273 31.0835 18.3348ZM30.7615 18.1382C30.9784 18.1075 31.5261 18.1694 31.8628 18.4179C32.1995 18.6651 32.3081 18.8687 32.4233 19.0891C32.4233 19.0891 31.8216 19.1376 31.2847 18.8151C31.0305 18.6603 30.8112 18.3039 30.7615 18.1382Z" fill="white"/>
<path fill-rule="evenodd" clip-rule="evenodd" d="M34.1915 20.173C34.3319 20.079 34.4114 19.9256 34.4458 19.7231C34.4458 19.7231 33.8223 19.7514 33.292 19.6818V19.7265C33.292 19.7265 34.1582 19.731 34.1915 20.173ZM33.9709 20.7532C33.9864 20.6351 33.9809 20.4262 33.9809 20.4262C33.6679 20.729 33.0254 20.9415 33.0254 20.9415C33.035 20.7641 33.0898 20.61 33.0898 20.61C32.8171 20.7777 32.6641 20.7596 32.6641 20.7596C32.6922 20.5502 32.8322 20.3024 32.8322 20.3024C32.6396 20.5502 32.3945 20.566 32.3945 20.566C32.361 20.4415 32.4333 20.1331 32.4333 20.1331C32.3388 20.2569 32.1612 20.5794 31.6025 20.7032C31.0426 20.8277 30.7942 20.5049 30.7942 20.5049C31.3388 20.5439 31.8473 19.9992 31.8473 19.9992C31.5644 19.8863 31.4689 19.6721 31.4689 19.6721C31.6334 19.524 31.7997 19.524 31.7997 19.524C31.4807 19.3753 31.4148 19.1166 31.4148 19.1166C31.8142 19.3163 33.0435 19.3304 33.7121 19.3657C34.3798 19.398 35.0445 19.1423 35.0445 19.1423C34.9691 20.649 33.9709 20.7532 33.9709 20.7532Z" fill="white"/>
<path fill-rule="evenodd" clip-rule="evenodd" d="M35.2022 19.2472C35.1779 19.5732 35.096 19.8946 34.9866 20.1229C34.9866 20.1229 35.3803 19.818 35.4745 19.5585C35.5709 19.3013 35.5956 19.1226 35.2022 19.2472Z" fill="white"/>
<path fill-rule="evenodd" clip-rule="evenodd" d="M36.1504 20.3173C36.1504 20.223 36.075 20.1479 35.9858 20.1479C35.8964 20.1479 35.8218 20.223 35.8218 20.3173C35.8218 20.4115 35.8964 20.4856 35.9858 20.4856C36.075 20.4856 36.1504 20.4115 36.1504 20.3173ZM35.889 19.5735C36.1107 19.5188 36.5766 19.4637 36.7823 19.7775C36.9909 20.0892 36.9096 20.6802 36.4952 20.92C36.4952 20.92 35.8645 20.3613 35.1024 20.917C35.1024 20.917 34.9236 20.7993 34.5249 20.7051C34.5249 20.7051 34.7606 20.4115 35.0254 20.2877C35.2601 20.1767 35.7492 20.0303 35.889 19.5735Z" fill="white"/>
<path fill-rule="evenodd" clip-rule="evenodd" d="M34.4416 20.8074C34.4416 20.8074 34.1655 21.1906 33.9614 21.3591C33.9614 21.3591 34.9888 21.3491 35.2482 22.2677C35.2482 22.2677 35.6046 21.705 35.3437 21.3382C35.0648 20.943 34.8078 20.8943 34.4416 20.8074Z" fill="white"/>
<path fill-rule="evenodd" clip-rule="evenodd" d="M33.3111 21.0355C33.3111 21.0355 32.979 21.1367 32.8684 21.1665C32.8684 21.1665 32.8623 20.9682 32.8739 20.8725C32.7731 20.8978 32.6496 20.9306 32.5418 20.9416C32.5418 20.9416 32.2095 21.705 31.9519 22.0133C31.9519 22.0133 31.9361 22.1826 32.0804 22.4398C32.0804 22.4398 32.268 21.9881 32.6032 21.6258C32.7948 21.4231 32.9158 21.3193 33.3111 21.0355Z" fill="white"/>
<path fill-rule="evenodd" clip-rule="evenodd" d="M34.1834 20.8724C34.0798 20.9023 33.5482 21.074 33.2897 21.2651C32.97 21.5019 32.7492 21.7752 32.7827 22.2452C32.7827 22.2452 33.0434 21.8725 33.3291 21.705C33.5576 21.5706 33.9686 21.2 34.1834 20.8724Z" fill="white"/>
<path fill-rule="evenodd" clip-rule="evenodd" d="M34.1784 17.419C34.0814 17.419 33.8906 17.4673 33.8906 17.629C33.8906 17.7935 34.1374 18.1868 34.2027 18.3609H34.2087C34.2742 18.1868 34.5215 17.7935 34.5215 17.629C34.5215 17.4673 34.3313 17.419 34.2325 17.419H34.1784Z" fill="white"/>
<path fill-rule="evenodd" clip-rule="evenodd" d="M34.3945 18.6877C34.4398 18.4588 34.5252 17.8646 34.6639 17.7336C34.7934 17.6074 34.9853 17.5959 35.0814 17.601C35.1792 17.6074 35.2803 17.7093 35.2367 17.8418C35.1991 17.979 34.7724 18.6364 34.7158 18.7196C34.6179 18.7017 34.6376 18.7086 34.3945 18.6877Z" fill="white"/>
<path fill-rule="evenodd" clip-rule="evenodd" d="M34.0209 18.6877C33.9736 18.4588 33.8868 17.8646 33.7499 17.7336C33.6192 17.6074 33.4266 17.5959 33.3317 17.601C33.2367 17.6074 33.1344 17.7093 33.1756 17.8418C33.2139 17.979 33.6382 18.6364 33.6965 18.7196C33.7946 18.7017 33.7751 18.7086 34.0209 18.6877Z" fill="white"/>
<path fill-rule="evenodd" clip-rule="evenodd" d="M33.7449 16.6206H34.0755V16.2426H34.3421V16.6206H34.6753V16.8596H34.3421V17.3031H34.0755V16.8596H33.7449V16.6206Z" fill="white"/>
<path fill-rule="evenodd" clip-rule="evenodd" d="M29.8054 14.3787H30.1359V14H30.4065V14.3787H30.7386V14.6161H30.4065V15.0624H30.1359V14.6161H29.8054V14.3787Z" fill="white"/>
<path fill-rule="evenodd" clip-rule="evenodd" d="M37.766 19.0648C37.7627 18.9897 37.7583 18.9173 37.7497 18.8452C37.7259 18.6604 37.7217 18.5036 37.7406 18.3717C37.9802 18.4674 38.1416 18.5265 38.4714 19.0748C38.4714 19.0748 37.9467 18.7414 37.766 19.0648Z" fill="white"/>
<path fill-rule="evenodd" clip-rule="evenodd" d="M37.305 19.932C37.2977 19.7961 37.2125 19.3657 37.1045 19.0647C36.9694 18.6909 37.0458 18.1516 37.2071 17.8239C37.3626 17.508 37.4506 17.2108 37.4213 16.8832C37.4213 16.8832 37.7315 16.9904 37.91 17.1044C37.9396 17.4844 37.7256 17.8648 37.6241 18.0801C37.5015 18.3354 37.5258 18.6689 37.5532 18.8726C37.6003 19.2181 37.5282 19.5861 37.305 19.932Z" fill="white"/>
<path fill-rule="evenodd" clip-rule="evenodd" d="M37.271 17.0289C37.2808 16.985 37.2797 16.8652 37.2576 16.8172C37.2576 16.8172 36.7704 16.3257 36.359 16.243C36.0981 16.187 35.9384 16.306 35.8604 16.3721C35.8604 16.3721 36.0061 16.3549 36.2254 16.5397C36.4442 16.7233 36.7159 16.9442 36.9229 16.9999C37.1279 17.0557 37.1733 17.0391 37.271 17.0289Z" fill="white"/>
<path fill-rule="evenodd" clip-rule="evenodd" d="M35.821 16.409C35.6383 16.5987 35.4836 16.8004 35.4869 16.9742C35.4891 17.1548 35.6918 17.6078 35.7985 17.7799C35.9056 17.9518 36.0611 18.1783 36.0414 18.4526C36.0328 18.5889 35.9402 18.7296 35.8328 18.8461C35.8328 18.8461 36.4311 18.6996 36.5027 18.3177C36.5689 17.9762 36.4287 17.7378 36.3314 17.5489C36.2421 17.3703 35.9652 16.9563 35.8961 16.7836C35.8328 16.627 35.7985 16.4966 35.821 16.409Z" fill="white"/>
<path fill-rule="evenodd" clip-rule="evenodd" d="M32.3262 20.7097C32.2047 21.1477 32.0025 21.5587 31.8022 21.8808C31.6204 22.1763 31.5058 22.6528 31.5265 22.815C31.5265 22.815 31.2541 22.1991 31.393 21.7638C31.4986 21.4259 31.7884 20.9213 32.3262 20.7097Z" fill="white"/>
<path fill-rule="evenodd" clip-rule="evenodd" d="M31.6487 20.853C31.6487 20.853 31.2397 20.8615 31.0483 20.9915C30.8001 21.1591 30.5635 21.5272 30.4741 21.9676C30.4741 21.9676 30.8897 21.8931 31.0954 21.6823C31.3015 21.4706 31.5528 21.1545 31.6487 20.853Z" fill="white"/>
<path fill-rule="evenodd" clip-rule="evenodd" d="M33.7784 21.6194C33.8582 21.6258 34.0674 21.6762 34.1701 21.7081C34.1701 21.7081 33.82 21.813 33.6466 21.9628C33.498 22.0891 33.3663 22.2846 33.3081 22.6152C33.2244 23.0769 32.9602 23.5734 32.8813 23.723L32.8518 23.7166C32.9002 23.3988 32.7078 22.7399 32.6584 22.644C32.6584 22.644 32.9361 22.4653 33.0619 22.2791C33.1543 22.1415 33.3217 21.9128 33.7784 21.6194Z" fill="white"/>
<path fill-rule="evenodd" clip-rule="evenodd" d="M31.9569 22.6104C31.8572 22.8525 31.5847 23.2822 31.7096 23.729C31.8379 24.1773 32.1229 24.3694 32.2955 24.7506C32.2955 24.7506 32.4347 24.0635 32.4038 23.5356C32.3729 23.0055 32.1875 22.8015 31.9569 22.6104Z" fill="white"/>
<path fill-rule="evenodd" clip-rule="evenodd" d="M30.2798 23.8639C30.2991 23.6012 30.8871 22.9693 30.8577 22.6277C30.8272 22.2845 30.3867 22.0437 30.2776 21.9935H30.2719C30.1644 22.0437 29.7231 22.2845 29.6916 22.6277C29.6609 22.9693 30.2502 23.6012 30.268 23.8639H30.2798Z" fill="white"/>
<path fill-rule="evenodd" clip-rule="evenodd" d="M31.1675 22.6279C31.1675 22.6279 30.7592 23.4454 30.6853 23.7656C30.6132 24.083 30.6805 24.2945 30.8196 24.4883C30.957 24.6793 31.1909 24.887 31.4111 25.2906C31.4111 25.2906 31.6617 24.9468 31.6934 24.7672C31.7237 24.5875 31.6742 24.1581 31.6196 23.9794C31.5658 23.7969 31.3482 23.2182 31.1675 22.6279Z" fill="white"/>
<path fill-rule="evenodd" clip-rule="evenodd" d="M30.2772 25.7892C30.4627 25.6233 30.6292 25.3759 30.6829 25.2297C30.7333 25.0838 30.7469 24.8704 30.6229 24.7064C30.4746 24.5117 30.2888 24.292 30.2772 24.1141H30.2673C30.2537 24.292 30.0697 24.5117 29.921 24.7064C29.7964 24.8704 29.8097 25.0838 29.8643 25.2297C29.9151 25.3759 30.0825 25.6233 30.2695 25.7892H30.2772Z" fill="white"/>
<path fill-rule="evenodd" clip-rule="evenodd" d="M30.9578 25.2368C31.0474 25.337 31.5245 25.9289 31.5883 26.1014C31.6531 26.2731 31.7624 26.5997 31.6148 26.8281C31.4658 27.0554 31.1269 27.4158 30.8286 27.5694C30.8286 27.5694 31.151 27.05 31.1182 26.6241C31.0969 26.3514 30.8925 26.1085 30.8538 25.9419C30.8165 25.7776 30.8426 25.497 30.9578 25.2368Z" fill="white"/>
<path fill-rule="evenodd" clip-rule="evenodd" d="M31.8907 24.9105C31.8168 25.0155 31.6908 25.2706 31.6709 25.5183C31.6556 25.7627 31.6941 25.9593 31.824 26.3177C31.9877 26.77 32.2394 27.2734 32.3555 27.5006C32.3555 27.5006 32.5802 27.1698 32.7044 26.8743C32.7044 26.8743 32.3551 26.3782 32.2048 26.0284C32.0315 25.6161 31.9612 25.2349 31.8907 24.9105Z" fill="white"/>
<path fill-rule="evenodd" clip-rule="evenodd" d="M32.0588 24.7195C32.0588 24.7195 32.2093 25.8838 32.8726 26.7467C33.321 27.3313 33.6866 27.5353 33.9276 27.5353C34.2915 27.5353 34.6586 27.2226 34.7815 26.8626C34.902 26.5057 34.8643 25.9485 34.629 25.7509C34.629 25.7509 34.4104 26.4495 33.9436 26.4748C33.4176 26.5057 32.7381 25.8947 32.0588 24.7195Z" fill="white"/>
<path fill-rule="evenodd" clip-rule="evenodd" d="M32.5991 24.2329C32.5436 24.4407 32.5276 24.76 32.5991 25.0609C32.6549 25.2904 32.7909 25.5878 33.0499 25.7561C33.274 25.9004 33.8011 25.9352 34.0041 25.4193C34.0041 25.4193 33.0387 25.4944 32.5991 24.2329Z" fill="white"/>
<path fill-rule="evenodd" clip-rule="evenodd" d="M30.2692 27.6879C30.4061 27.6195 30.5213 27.5697 30.6797 27.3225C30.8002 27.1284 30.9171 26.7689 30.8525 26.5128C30.7699 26.1966 30.6056 26.0707 30.5049 25.8731C30.4238 25.9513 30.3737 26.0128 30.274 26.0715H30.2692C30.168 26.0128 30.1169 25.9513 30.0339 25.8731C29.932 26.0707 29.7701 26.1966 29.6858 26.5128C29.6216 26.7689 29.7373 27.1284 29.8591 27.3225C30.0161 27.5697 30.1324 27.6195 30.2692 27.6879Z" fill="white"/>
<path fill-rule="evenodd" clip-rule="evenodd" d="M30.273 29.6507C30.3385 29.3413 30.9648 28.7461 30.9058 28.4212C30.8202 27.9359 30.517 28.0381 30.2778 27.834H30.273C30.0315 28.0381 29.7251 27.9359 29.6383 28.4212C29.5827 28.7461 30.2046 29.3413 30.2697 29.6507H30.273Z" fill="white"/>
<path fill-rule="evenodd" clip-rule="evenodd" d="M31.0219 28.9242C30.89 29.2745 30.4164 29.7166 30.4204 29.9902C30.4289 30.7131 30.7338 31.156 30.8074 31.3939C30.8074 31.3939 31.3689 30.9346 31.4672 30.4081C31.52 30.1376 31.4596 29.3256 31.0219 28.9242Z" fill="white"/>
<path fill-rule="evenodd" clip-rule="evenodd" d="M31.6442 29.4364C31.5802 29.2479 31.374 28.7363 31.134 28.558C31.134 28.558 30.8284 27.6307 31.8113 27.059C31.8113 27.059 32.2153 27.6113 32.3237 28.1315C32.4308 28.6556 31.8948 28.9673 31.6442 29.4364Z" fill="white"/>
<path fill-rule="evenodd" clip-rule="evenodd" d="M32.8786 27.0913C33.0348 27.2903 33.2561 27.5615 33.4313 27.6464C33.4313 27.6464 33.4883 28.061 33.4574 28.337C33.4051 28.7465 33.1516 29.1632 33.0442 29.4689C33.0442 29.4689 32.6136 28.8896 32.5619 28.5495C32.5119 28.2084 32.5227 27.9285 32.5071 27.7649C32.5071 27.7649 32.7441 27.3634 32.8786 27.0913Z" fill="white"/>
<path fill-rule="evenodd" clip-rule="evenodd" d="M34.0089 29.0816C34.1312 28.889 34.5259 28.188 34.5307 27.6768C34.5307 27.6768 34.0456 27.9427 33.639 27.7466C33.639 27.7466 33.587 28.4123 33.6666 28.6363C33.729 28.819 33.8127 28.9273 34.0089 29.0816Z" fill="white"/>
<path fill-rule="evenodd" clip-rule="evenodd" d="M33.8995 29.2228C33.8204 29.1513 33.627 28.9681 33.5501 28.8717C33.5501 28.8717 33.2264 29.4791 33.1738 29.6572C33.1738 29.6572 33.3322 29.7004 33.5092 29.5678C33.686 29.4353 33.7247 29.3991 33.8995 29.2228Z" fill="white"/>
<path fill-rule="evenodd" clip-rule="evenodd" d="M32.4106 28.8659C32.4498 29.0197 32.9692 29.7643 33.0582 29.856C33.0582 29.856 33.0172 30.1257 32.8246 30.5148C32.6341 30.901 32.3673 31.1737 32.2227 31.3109C32.2227 31.3109 31.9024 30.7333 31.8067 30.4808C31.6978 30.19 31.7111 29.9038 31.7594 29.7966C31.866 29.5449 32.2435 29.1813 32.4106 28.8659Z" fill="white"/>
<path fill-rule="evenodd" clip-rule="evenodd" d="M30.2767 33.2765C30.326 33.0725 30.6266 32.8293 30.7495 32.4743C30.8244 32.2651 30.8213 32.0203 30.742 31.8526C30.6467 31.6569 30.3101 31.1778 30.2719 31.0408C30.2297 31.1778 29.8976 31.6569 29.8012 31.8526C29.7201 32.0203 29.7181 32.2651 29.7913 32.4743C29.9175 32.8293 30.2176 33.0725 30.2667 33.2765H30.2767Z" fill="white"/>
<path fill-rule="evenodd" clip-rule="evenodd" d="M31.6256 30.8165C31.5122 31.0554 31.1662 31.449 31.1113 31.7599C31.0679 32.0041 31.1076 32.2038 31.1687 32.3749C31.234 32.5396 31.4447 32.8685 31.5814 33.1188C31.5814 33.1188 32.0556 32.6564 32.1601 32.3262C32.2399 32.0779 32.2094 31.725 32.0946 31.5056C31.981 31.2842 31.7349 31.045 31.6256 30.8165Z" fill="white"/>
<path fill-rule="evenodd" clip-rule="evenodd" d="M32.9751 30.7491C32.8521 31.0276 32.5567 31.3033 32.4904 31.5455C32.4106 31.8325 32.3857 32.0137 32.5191 32.3483C32.6406 32.6398 32.7817 32.8119 32.8319 32.9906C32.8319 32.9906 33.217 32.4745 33.2794 32.2605C33.3473 32.0465 33.3646 31.6939 33.2882 31.471C33.2078 31.2446 33.0689 30.9549 32.9751 30.7491Z" fill="white"/>
<path fill-rule="evenodd" clip-rule="evenodd" d="M30.2731 37.2289C30.2977 36.9774 30.8022 36.1973 30.8254 35.3709C30.8376 34.9564 30.4817 34.3103 30.2779 34.0633H30.2663C30.065 34.3103 29.7077 34.9564 29.7193 35.3709C29.7443 36.1973 30.247 36.9774 30.2731 37.2289Z" fill="white"/>
<path fill-rule="evenodd" clip-rule="evenodd" d="M31.0721 32.7112C31.0721 32.7112 31.735 33.5383 31.7199 33.9766C31.7009 34.522 31.346 34.8867 31.2995 35.222C31.2995 35.222 30.9508 34.816 30.8187 34.5431C30.6697 34.2374 30.5556 33.9766 30.5981 33.6292C30.6353 33.2811 30.7221 33.0592 31.0721 32.7112Z" fill="white"/>
<path fill-rule="evenodd" clip-rule="evenodd" d="M32.296 32.6299C32.1899 32.7882 31.8966 33.329 31.9794 33.6489C32.0659 33.9728 32.3908 34.4261 32.4991 34.6188C32.4991 34.6188 32.7606 34.0638 32.8208 33.8081C32.8798 33.5554 32.8237 33.1392 32.296 32.6299Z" fill="white"/>
<path fill-rule="evenodd" clip-rule="evenodd" d="M30.7235 38.5555C30.7642 37.9135 31.1186 37.5279 31.1798 37.1943C31.2496 36.8263 31.2258 36.4741 30.95 36.0502C30.7235 36.8412 30.4799 37.4201 30.2862 37.8152C30.2796 37.8247 30.2757 37.8375 30.2713 37.8491C30.2661 37.8375 30.2636 37.8247 30.2556 37.8152C30.0632 37.4201 29.8183 36.8412 29.5944 36.0502C29.3177 36.4741 29.2938 36.8263 29.3622 37.1943C29.4251 37.5279 29.778 37.9135 29.8183 38.5555C29.8569 39.1999 29.1558 39.4442 29.1558 39.4442C29.3913 39.5332 29.6614 39.573 30.0901 39.1536C30.1683 39.0785 30.2264 38.9944 30.2713 38.9058C30.3167 38.9944 30.3758 39.0785 30.4534 39.1536C30.8794 39.573 31.1513 39.5332 31.3877 39.4442C31.3877 39.4442 30.6853 39.1999 30.7235 38.5555Z" fill="white"/>
<path fill-rule="evenodd" clip-rule="evenodd" d="M28.5189 34.2791C28.5912 34.5198 28.8094 34.9648 28.8385 35.1006C28.8911 35.3554 28.8195 35.6643 28.3693 35.9918C28.3693 35.9918 28.0778 35.7803 27.9621 35.5051C27.8548 35.2448 27.9169 35.0605 28.0285 34.9284C28.1419 34.794 28.407 34.4812 28.5189 34.2791Z" fill="white"/>
<path fill-rule="evenodd" clip-rule="evenodd" d="M29.4661 35.2315C29.4661 35.3606 29.3732 36.0884 29.1741 36.4512C28.8923 36.9583 28.4779 37.3338 28.1158 37.3338C27.7814 37.3338 27.7092 37.1269 27.5442 37.045C27.5442 37.045 27.6283 36.6034 28.0054 36.489C28.4689 36.3447 29.1784 35.7715 29.4661 35.2315Z" fill="white"/>
<path fill-rule="evenodd" clip-rule="evenodd" d="M28.2578 36.159C28.1803 36.097 28.112 36.0562 28.02 35.9442C28.02 35.9442 27.6633 36.0799 27.3689 36.2841C27.074 36.489 26.7855 36.8378 26.6304 37.0183C26.6304 37.0183 27.0707 37.1358 27.3505 37.0039C27.3505 37.0039 27.4511 36.5697 27.7656 36.3749C27.8355 36.3328 28.0546 36.2656 28.2578 36.159Z" fill="white"/>
<path fill-rule="evenodd" clip-rule="evenodd" d="M27.8912 35.7872C27.8205 35.6776 27.6811 35.4755 27.7111 35.158C27.7111 35.158 27.0908 35.5656 26.9092 35.7169C26.7214 35.8748 26.3334 36.2867 26.2471 36.4225C26.2471 36.4225 26.7172 36.3159 27.0769 36.1904C27.471 36.0563 27.7434 35.8748 27.8912 35.7872Z" fill="white"/>
<path fill-rule="evenodd" clip-rule="evenodd" d="M26.844 36.4771C26.5117 36.6025 25.7594 36.7257 25.447 36.8222C25.1324 36.919 24.9047 37.0855 24.605 37.4225C24.605 37.4225 25.0656 37.5567 25.3122 37.6358C25.3122 37.6358 25.7036 37.3614 26.1319 37.1914C26.4122 37.0801 26.5479 36.779 26.844 36.4771Z" fill="white"/>
<path fill-rule="evenodd" clip-rule="evenodd" d="M26.1407 38.7648C26.2129 38.6813 26.3036 38.5873 26.2338 38.3955C26.1853 38.2528 25.9131 38.1 25.7514 38.019C25.4822 37.886 24.7355 37.6787 24.4903 37.6054C24.4903 37.6054 24.3684 37.7512 24.3058 37.9061C24.277 37.9657 24.3143 38.0279 24.42 38.047C24.628 38.0841 25.1275 37.9877 25.2506 38.0693C25.3801 38.1578 25.3329 38.2756 25.3329 38.3955C25.3329 38.3955 25.5621 38.2494 25.705 38.2826C25.9063 38.3261 26.0268 38.4244 26.1407 38.7648Z" fill="white"/>
<path fill-rule="evenodd" clip-rule="evenodd" d="M25.4749 37.6914C25.5286 37.71 25.8206 37.8009 26.1043 37.9869C26.1043 37.9869 26.2292 37.9364 26.2925 37.8175C26.3527 37.703 26.6068 37.3134 26.8432 37.261C26.8432 37.261 26.6426 37.2413 26.5273 37.2038C26.5273 37.2038 26.2857 37.268 26.1138 37.3411C25.9416 37.4132 25.728 37.5228 25.4749 37.6914Z" fill="white"/>
<path fill-rule="evenodd" clip-rule="evenodd" d="M27.4035 37.1992C27.3595 37.221 27.282 37.2597 27.1069 37.2673C27.1069 37.2673 26.4513 37.7361 26.3742 38.2062C26.3104 38.6056 26.5139 38.7983 26.6121 38.8479C26.7106 38.9003 27.1703 39.0947 27.468 38.4595C27.468 38.4595 26.9597 38.6315 26.8213 38.3807C26.6842 38.1265 26.9093 37.7597 27.0473 37.6548C27.2268 37.5135 27.5538 37.4201 27.7501 37.4554C27.7501 37.4554 27.5915 37.2986 27.4035 37.1992Z" fill="white"/>
<path fill-rule="evenodd" clip-rule="evenodd" d="M23.1049 42.5773C23.1845 42.2315 23.2738 41.8702 23.426 41.5372C23.7229 40.8883 24.4499 39.1627 25.9666 38.8571C26.1099 38.8294 25.8026 38.4639 25.6683 38.484C25.5309 38.4995 25.2607 38.6815 25.1417 38.7646C25.1417 38.7646 25.1417 38.3951 25.1375 38.3285C25.1337 38.2596 25.077 38.2393 25.018 38.2408C24.9592 38.2413 24.5933 38.2393 24.4761 38.3756C24.1312 38.7896 23.5468 39.9002 23.2165 40.7275C22.8856 41.5536 22.6607 41.8093 22.3113 41.6815C21.9623 41.5536 21.7531 41.1406 21.1462 41.266C20.9348 41.3113 20.7001 41.4566 20.5176 41.672C20.5683 41.7731 20.6334 41.896 20.9185 41.896C21.202 41.896 21.7436 42.0187 22.0469 42.2378C22.3511 42.4564 22.6689 42.5279 23.1049 42.5773Z" fill="white"/>
<path fill-rule="evenodd" clip-rule="evenodd" d="M29.1569 37.2259C29.1917 37.494 29.3166 37.7439 29.4555 38.0036C29.4555 38.0036 28.9926 40.2024 27.3249 40.3732C27.3249 40.3732 27.3575 39.9178 27.8517 39.5696C28.3461 39.2229 29.085 38.683 29.0318 37.866C29.0318 37.866 28.9003 37.8936 28.6625 38.2011C28.4259 38.507 27.9054 39.3918 27.0979 39.3985C27.0979 39.3985 27.2188 38.9842 27.5753 38.745C27.9325 38.507 28.386 38.2011 28.591 37.8316C28.7976 37.4642 29.014 37.2937 29.1569 37.2259Z" fill="white"/>
<path fill-rule="evenodd" clip-rule="evenodd" d="M28.3701 45.2378L29.3859 46.7064L30.1566 45.2926L29.884 44.7888C29.6827 45.1596 29.4672 45.5607 29.3451 45.7808C29.2494 45.6457 28.9927 45.2743 28.6568 44.7888L28.3701 45.2378Z" fill="white"/>
<path fill-rule="evenodd" clip-rule="evenodd" d="M28.1112 43.9938C27.1193 42.5632 25.8963 40.7917 25.7723 40.6121L26.1561 40.3266L24.946 39.8479L24.9671 41.2111L25.3767 40.9061L27.8228 44.4452L28.1112 43.9938Z" fill="white"/>
<path fill-rule="evenodd" clip-rule="evenodd" d="M19.7567 35.9535C20.0552 35.6172 20.5607 35.9088 21.0721 36.3948C21.5867 36.8809 21.9072 37.3786 21.6104 37.7144C21.332 38.026 20.8056 37.7596 20.2898 37.2751C19.7772 36.7884 19.4548 36.2895 19.7567 35.9535Z" fill="white"/>
<path fill-rule="evenodd" clip-rule="evenodd" d="M20.5827 41.9331C20.5637 41.9182 20.5492 41.9057 20.5343 41.8911C20.2621 41.6458 20.1073 41.2663 20.1073 40.8523C20.1073 40.0576 20.7322 39.4092 21.5048 39.4092C22.2755 39.4092 22.8993 40.0576 22.8993 40.8523C22.8993 40.9597 22.8794 41.1359 22.8794 41.1359C22.9433 41.013 23.1724 40.462 23.219 40.3601C23.0106 39.5863 22.3191 39.0163 21.5048 39.0163C20.8014 39.0163 20.1927 39.4378 19.9033 40.0496C20.0125 39.3213 20.364 38.6674 20.6117 38.4252C20.9094 38.1366 21.4146 38.0434 21.4146 38.0434C21.083 38.0998 20.6456 37.8882 20.1571 37.4225C19.6923 36.9851 19.4552 36.6004 19.4403 36.2797C19.4688 36.7325 19.4552 36.987 19.3303 37.3553C19.162 37.8569 18.7017 38.7844 18.8667 39.8311C18.9563 40.4054 19.3599 41.2607 20.0357 41.9593C20.1788 42.1158 20.2319 42.3479 20.2497 42.468C20.2497 42.468 21.2436 42.468 21.4795 42.4913C21.4795 42.4913 21.7164 42.468 21.7128 42.3166C21.7102 42.1644 21.5784 42.1255 21.46 42.1255C21.3421 42.1255 20.8477 42.138 20.5827 41.9331Z" fill="white"/>
<path fill-rule="evenodd" clip-rule="evenodd" d="M26.0882 42.2826C25.4473 42.5193 24.8091 42.6487 24.2036 42.7446C23.8077 42.8055 23.4245 42.8283 23.0536 42.8085C23.0592 42.8715 23.0592 42.9553 23.0239 43.0161C23.0239 43.0161 23.0987 43.1065 23.0987 43.206C23.4732 43.22 23.8635 43.1981 24.2618 43.1339C24.9251 43.0289 25.6201 42.8916 26.3209 42.6174L26.0882 42.2826Z" fill="white"/>
<path fill-rule="evenodd" clip-rule="evenodd" d="M27.1334 42.232C27.9836 41.7548 28.8114 41.0146 29.5591 39.8348L29.6929 39.6035C29.4885 39.6978 29.2279 39.6299 29.2279 39.6299C29.2125 39.6506 29.1803 39.7039 29.1646 39.7349C28.4677 40.7966 27.6959 41.4653 26.9082 41.9027L27.1334 42.232Z" fill="white"/>
<path fill-rule="evenodd" clip-rule="evenodd" d="M21.5378 42.608C21.4212 42.5885 21.0478 42.5995 20.825 42.6329C20.5795 42.6738 20.3014 42.7243 20.2715 42.8643C20.2445 42.997 20.3329 43.137 20.4567 43.3379C20.5326 43.4615 20.7155 43.3902 20.8163 43.3513C20.9167 43.3136 21.4913 42.9951 21.5823 42.892C21.6755 42.7867 21.7141 42.6385 21.5378 42.608Z" fill="white"/>
<path fill-rule="evenodd" clip-rule="evenodd" d="M22.1227 42.9992C22.0615 42.9593 21.912 42.8987 21.7562 42.9599C21.6001 43.0196 21.0341 43.3638 20.9976 43.5276C20.9578 43.6883 21.037 43.7674 21.1246 43.8042C21.2115 43.8402 21.3175 43.8749 21.3967 43.8834C21.5383 43.8946 21.6757 43.8098 21.749 43.7184C21.8208 43.6255 22.0865 43.2956 22.1227 43.2201C22.1609 43.1474 22.1815 43.04 22.1227 42.9992Z" fill="white"/>
<path fill-rule="evenodd" clip-rule="evenodd" d="M22.1881 43.3612C22.1048 43.4568 21.8768 43.7423 21.8495 43.7902C21.824 43.837 21.8641 43.9116 21.9356 43.9021C22.0061 43.8945 22.397 43.8534 22.6211 43.6967C22.8443 43.5384 22.9936 43.2328 22.8393 43.1238C22.6852 43.0134 22.4454 43.0651 22.1881 43.3612Z" fill="white"/>
<path fill-rule="evenodd" clip-rule="evenodd" d="M22.3165 42.4853C22.2417 42.4676 21.9465 42.3918 21.8844 42.4913C21.8031 42.6161 21.8601 42.7501 22.0892 42.8648C22.3165 42.9759 22.7474 43.0666 22.8347 42.9461C22.9169 42.8213 22.8003 42.6161 22.3165 42.4853Z" fill="white"/>
<path fill-rule="evenodd" clip-rule="evenodd" d="M32.0282 34.2791C31.9542 34.5198 31.7368 34.9648 31.7073 35.1006C31.656 35.3554 31.7255 35.6643 32.1769 35.9918C32.1769 35.9918 32.4674 35.7803 32.5835 35.5051C32.6924 35.2448 32.6304 35.0605 32.5172 34.9284C32.4044 34.794 32.1412 34.4812 32.0282 34.2791Z" fill="white"/>
<path fill-rule="evenodd" clip-rule="evenodd" d="M31.0776 35.2315C31.0776 35.3606 31.1696 36.0884 31.3724 36.4512C31.6541 36.9583 32.067 37.3338 32.4292 37.3338C32.7656 37.3338 32.8377 37.1269 33.0009 37.045C33.0009 37.045 32.9166 36.6034 32.5381 36.489C32.0774 36.3447 31.3669 35.7715 31.0776 35.2315Z" fill="white"/>
<path fill-rule="evenodd" clip-rule="evenodd" d="M32.2905 36.159C32.3687 36.097 32.4333 36.0562 32.5266 35.9442C32.5266 35.9442 32.8863 36.0799 33.1803 36.2841C33.4727 36.489 33.7593 36.8378 33.9181 37.0183C33.9181 37.0183 33.4769 37.1358 33.1969 37.0039C33.1969 37.0039 33.0951 36.5697 32.7807 36.3749C32.7135 36.3328 32.4938 36.2656 32.2905 36.159Z" fill="white"/>
<path fill-rule="evenodd" clip-rule="evenodd" d="M32.6584 35.7872C32.7276 35.6776 32.8676 35.4755 32.8354 35.158C32.8354 35.158 33.4548 35.5656 33.6409 35.7169C33.8279 35.8748 34.2148 36.2867 34.3018 36.4225C34.3018 36.4225 33.8317 36.3159 33.4715 36.1904C33.0776 36.0563 32.8055 35.8748 32.6584 35.7872Z" fill="white"/>
<path fill-rule="evenodd" clip-rule="evenodd" d="M33.7009 36.4771C34.0352 36.6025 34.7819 36.7257 35.098 36.8222C35.4126 36.919 35.6416 37.0855 35.9412 37.4225C35.9412 37.4225 35.4779 37.5567 35.2343 37.6358C35.2343 37.6358 34.8424 37.3614 34.4115 37.1914C34.1337 37.0801 33.996 36.779 33.7009 36.4771Z" fill="white"/>
<path fill-rule="evenodd" clip-rule="evenodd" d="M34.4038 38.7648C34.3323 38.6813 34.2417 38.5873 34.3091 38.3955C34.3591 38.2528 34.6323 38.1 34.7961 38.019C35.0656 37.886 35.8123 37.6787 36.0548 37.6054C36.0548 37.6054 36.176 37.7512 36.241 37.9061C36.2686 37.9657 36.229 38.0279 36.1267 38.047C35.9171 38.0841 35.4176 37.9877 35.2945 38.0693C35.1643 38.1578 35.2102 38.2756 35.2102 38.3955C35.2102 38.3955 34.9843 38.2494 34.8371 38.2826C34.6403 38.3261 34.5166 38.4244 34.4038 38.7648Z" fill="white"/>
<path fill-rule="evenodd" clip-rule="evenodd" d="M35.0682 37.6914C35.0133 37.71 34.723 37.8009 34.4393 37.9869C34.4393 37.9869 34.3134 37.9364 34.2512 37.8175C34.1918 37.703 33.9357 37.3134 33.7009 37.261C33.7009 37.261 33.9007 37.2413 34.0141 37.2038C34.0141 37.2038 34.2573 37.268 34.4319 37.3411C34.6034 37.4132 34.8179 37.5228 35.0682 37.6914Z" fill="white"/>
<path fill-rule="evenodd" clip-rule="evenodd" d="M33.1369 37.1992C33.1821 37.221 33.2588 37.2597 33.4323 37.2673C33.4323 37.2673 34.0907 37.7361 34.1663 38.2062C34.2349 38.6056 34.0292 38.7983 33.9295 38.8479C33.8294 38.9003 33.3722 39.0947 33.0749 38.4595C33.0749 38.4595 33.5816 38.6315 33.7205 38.3807C33.8579 38.1265 33.6345 37.7597 33.4964 37.6548C33.3155 37.5135 32.9895 37.4201 32.7908 37.4554C32.7908 37.4554 32.9486 37.2986 33.1369 37.1992Z" fill="white"/>
<path fill-rule="evenodd" clip-rule="evenodd" d="M37.4401 42.5773C37.3602 42.2315 37.2732 41.8702 37.1196 41.5372C36.8241 40.8883 36.0968 39.1627 34.5769 38.8571C34.4354 38.8294 34.7403 38.4639 34.8799 38.484C35.0153 38.4995 35.2856 38.6815 35.4057 38.7646C35.4057 38.7646 35.4057 38.3951 35.4089 38.3285C35.4127 38.2596 35.4685 38.2393 35.5257 38.2408C35.5855 38.2413 35.9516 38.2393 36.0672 38.3756C36.4149 38.7896 36.9978 39.9002 37.3293 40.7275C37.6605 41.5536 37.8861 41.8093 38.2333 41.6815C38.5832 41.5536 38.7944 41.1406 39.3999 41.266C39.6119 41.3113 39.8445 41.4566 40.0307 41.672C39.9775 41.7731 39.9116 41.896 39.6296 41.896C39.3424 41.896 38.8001 42.0187 38.4991 42.2378C38.1945 42.4564 37.8774 42.5279 37.4401 42.5773Z" fill="white"/>
<path fill-rule="evenodd" clip-rule="evenodd" d="M31.38 37.2259C31.3487 37.494 31.2223 37.7439 31.0854 38.0036C31.0854 38.0036 31.5471 40.2024 33.2179 40.3732C33.2179 40.3732 33.1826 39.9178 32.6893 39.5696C32.1929 39.2229 31.4545 38.683 31.5073 37.866C31.5073 37.866 31.6391 37.8936 31.8757 38.2011C32.116 38.507 32.6365 39.3918 33.4409 39.3985C33.4409 39.3985 33.3224 38.9842 32.9651 38.745C32.6083 38.507 32.153 38.2011 31.9476 37.8316C31.7441 37.4642 31.5281 37.2937 31.38 37.2259Z" fill="white"/>
<path fill-rule="evenodd" clip-rule="evenodd" d="M30.2736 39.3591C30.372 39.6508 31.002 40.5724 31.2782 40.8342C31.5567 41.0968 32.2296 41.7933 32.5898 42.1402C32.5898 42.1402 31.5643 41.8779 30.9869 41.3376C30.9869 41.3376 30.5768 41.5838 30.2775 41.5838H30.2627C29.9628 41.5838 29.552 41.3376 29.552 41.3376C28.9763 41.8779 27.9524 42.1402 27.9524 42.1402C28.3108 41.7933 28.984 41.0968 29.2606 40.8342C29.5389 40.5724 30.1711 39.6508 30.2679 39.3591H30.2736Z" fill="white"/>
<path fill-rule="evenodd" clip-rule="evenodd" d="M30.2758 41.8C30.5023 41.8 30.7168 41.7074 30.8388 41.6532C30.7168 41.9168 30.4892 42.3259 30.2708 42.4945H30.2679C30.0491 42.3259 29.8211 41.9168 29.7019 41.6532C29.8211 41.7074 30.0355 41.8 30.2627 41.8H30.2758Z" fill="white"/>
<path fill-rule="evenodd" clip-rule="evenodd" d="M31.1559 46.7062L35.1654 40.9062L35.5733 41.2109L35.5981 39.848L34.383 40.3271L34.7687 40.6122C34.5722 40.8968 31.5741 45.2342 31.1967 45.7806L29.3807 42.3837L29.1568 42.7374L27.5405 45.2585L27.1359 44.9794L27.1304 46.3196L28.3576 45.8182L27.9458 45.5367C28.1688 45.1888 29.0461 43.8231 29.3384 43.3638L31.1559 46.7062Z" fill="white"/>
<path fill-rule="evenodd" clip-rule="evenodd" d="M31.8861 44.4283C31.6154 44.0072 31.3435 43.5816 31.2046 43.3637C31.1034 43.5594 30.8971 43.9414 30.667 44.3644L30.3801 43.8348L31.1604 42.3836L31.3871 42.737L32.1893 43.9898L31.8861 44.4283Z" fill="white"/>
<path fill-rule="evenodd" clip-rule="evenodd" d="M32.7143 44.8054L33.0024 45.2585L33.4059 44.9792L33.4133 46.3199L32.1853 45.818L32.5952 45.5371C32.5531 45.4701 32.4909 45.3666 32.4094 45.2427L32.7143 44.8054Z" fill="white"/>
<path fill-rule="evenodd" clip-rule="evenodd" d="M40.7878 35.9535C40.4882 35.6172 39.9828 35.9088 39.4682 36.3948C38.9569 36.8809 38.6351 37.3786 38.9333 37.7144C39.2102 38.026 39.7423 37.7596 40.2546 37.2751C40.7651 36.7884 41.0884 36.2895 40.7878 35.9535Z" fill="white"/>
<path fill-rule="evenodd" clip-rule="evenodd" d="M39.9631 41.9331C39.9806 41.9182 39.994 41.9057 40.0098 41.8911C40.2816 41.6458 40.4396 41.2663 40.4396 40.8523C40.4396 40.0576 39.8126 39.4092 39.0413 39.4092C38.2708 39.4092 37.6458 40.0576 37.6458 40.8523C37.6458 40.9597 37.6662 41.1359 37.6662 41.1359C37.6033 41.013 37.3716 40.462 37.3262 40.3601C37.5328 39.5863 38.2224 39.0163 39.0413 39.0163C39.744 39.0163 40.353 39.4378 40.6405 40.0496C40.5311 39.3213 40.1835 38.6674 39.9333 38.4252C39.6363 38.1366 39.1306 38.0434 39.1306 38.0434C39.4612 38.0998 39.8987 37.8882 40.3883 37.4225C40.8525 36.9851 41.0928 36.6004 41.1047 36.2797C41.0762 36.7325 41.0887 36.987 41.2122 37.3553C41.382 37.8569 41.8435 38.7844 41.6804 39.8311C41.5897 40.4054 41.1855 41.2607 40.5127 41.9593C40.367 42.1158 40.313 42.3479 40.2972 42.468C40.2972 42.468 39.3009 42.468 39.0638 42.4913C39.0638 42.4913 38.829 42.468 38.8332 42.3166C38.8376 42.1644 38.9668 42.1255 39.0864 42.1255C39.2023 42.1255 39.6989 42.138 39.9631 41.9331Z" fill="white"/>
<path fill-rule="evenodd" clip-rule="evenodd" d="M33.408 42.2301C32.5605 41.7508 31.7322 41.0147 30.9839 39.8347L30.8496 39.6034C31.0549 39.6974 31.3173 39.6298 31.3173 39.6298C31.332 39.6505 31.3629 39.7037 31.3784 39.7352C32.0755 40.795 32.8475 41.4652 33.635 41.9026L33.408 42.2301Z" fill="white"/>
<path fill-rule="evenodd" clip-rule="evenodd" d="M34.4558 42.281C35.0968 42.5197 35.7355 42.6487 36.3402 42.7443C36.7362 42.8055 37.1229 42.8283 37.4907 42.8085C37.4856 42.8715 37.4856 42.9549 37.5212 43.0161C37.5212 43.0161 37.4484 43.1068 37.4484 43.206C37.071 43.22 36.6832 43.1981 36.2825 43.1339C35.624 43.0289 34.9241 42.8916 34.2258 42.6164L34.4558 42.281Z" fill="white"/>
<path fill-rule="evenodd" clip-rule="evenodd" d="M39.0084 42.608C39.1275 42.5885 39.5004 42.5995 39.7225 42.6329C39.9674 42.6738 40.2459 42.7243 40.2763 42.8643C40.3026 42.997 40.2147 43.137 40.0923 43.3379C40.0125 43.4615 39.8305 43.3902 39.7322 43.3513C39.6305 43.3136 39.0555 42.9951 38.9619 42.892C38.8725 42.7867 38.8335 42.6385 39.0084 42.608Z" fill="white"/>
<path fill-rule="evenodd" clip-rule="evenodd" d="M38.4203 42.9992C38.4832 42.9593 38.6343 42.8987 38.7901 42.9599C38.9447 43.0196 39.5097 43.3638 39.5493 43.5276C39.5857 43.6883 39.508 43.7674 39.4205 43.8042C39.3344 43.8402 39.2269 43.8749 39.1485 43.8834C39.0081 43.8946 38.8711 43.8098 38.7978 43.7184C38.7239 43.6255 38.4619 43.2956 38.4203 43.2201C38.3846 43.1474 38.3655 43.04 38.4203 42.9992Z" fill="white"/>
<path fill-rule="evenodd" clip-rule="evenodd" d="M38.3562 43.3612C38.4368 43.4568 38.6671 43.7423 38.6931 43.7902C38.7212 43.837 38.6787 43.9116 38.6079 43.9021C38.5354 43.8945 38.1472 43.8534 37.9235 43.6967C37.6999 43.5384 37.5513 43.2328 37.706 43.1238C37.8561 43.0134 38.0972 43.0651 38.3562 43.3612Z" fill="white"/>
<path fill-rule="evenodd" clip-rule="evenodd" d="M38.2267 42.4853C38.3007 42.4676 38.5956 42.3918 38.6593 42.4913C38.7375 42.6161 38.6814 42.7501 38.4525 42.8648C38.2267 42.9759 37.7955 43.0666 37.7094 42.9461C37.6255 42.8213 37.7441 42.6161 38.2267 42.4853Z" fill="white"/>
</svg>
