<svg width="60" height="60" viewBox="0 0 60 60" fill="none" xmlns="http://www.w3.org/2000/svg">
<circle cx="30" cy="30" r="30" fill="#FFDD2D"/>
<path d="M51.0843 29.0666L51.6509 27.2694L49.7763 27.3276C49.6179 27.3276 48.4667 27.2952 47.3499 26.4928C47.4331 26.501 47.5163 26.5122 47.6013 26.5122C48.7508 26.5122 49.8628 25.8263 50.3086 24.846L51.1153 23.0746C50.1045 23.0876 49.1803 22.9614 49.1803 22.9614C49.1721 22.9597 48.4438 22.8676 47.6013 22.015C46.997 21.4035 46.2492 21.0799 45.4392 21.0799C45.085 21.0799 44.7681 21.143 44.4955 21.2288C44.5379 21.0848 44.5787 20.9392 44.6017 20.7887C44.8596 19.1306 43.7819 17.8655 43.7819 17.8672L42.3727 16.1379L41.4991 18.1697C41.4958 18.1762 41.2754 18.6518 40.8802 18.8847C40.761 18.2878 40.4688 17.6165 39.8434 16.9742C38.6643 15.7642 37.2291 15.5846 36.4779 15.5846C36.1301 15.5846 35.8819 15.6218 35.8214 15.6315L34.12 15.9632C34.2179 15.5863 34.427 14.931 34.8091 14.3406L35.748 12.8912L33.3852 13.1581L32.6324 11.5743L31.1759 12.3185L29.8288 11L28.4848 12.3185L27.0234 11.5743L26.2722 13.1581L23.9111 12.8912L24.8515 14.3406C25.2337 14.931 25.4427 15.5846 25.5391 15.9615L23.9159 15.6445L23.8604 15.6348C23.7787 15.6218 23.5323 15.5846 23.1828 15.5846C22.4316 15.5846 20.9963 15.7658 19.8206 16.9742C19.1935 17.6149 18.9013 18.2878 18.7804 18.8847C18.3886 18.655 18.1697 18.1859 18.1697 18.1859L17.2945 16.1427L15.8625 17.8834C15.6877 18.1082 14.824 19.2973 15.0591 20.792C15.0836 20.9409 15.1228 21.0864 15.1652 21.2305C14.8942 21.1447 14.5774 21.0816 14.2231 21.0816C13.4131 21.0816 12.6653 21.4052 12.0595 22.0167C11.2201 22.866 10.4951 22.9614 10.5017 22.9614C10.5017 22.9614 9.73579 23.0972 8.55032 23.0762L9.35206 24.8477C9.7979 25.8296 10.9114 26.5139 12.0595 26.5139C12.146 26.5139 12.2292 26.5025 12.3142 26.4944C11.2005 27.2968 10.0493 27.3292 9.91048 27.3308L8 27.2694L8.57806 29.0649C8.86875 29.9904 9.84026 31.5239 11.7019 31.6889C11.4993 32.5301 11.0503 33.4717 10.064 33.8777L8.64177 34.4584L9.41736 35.7963C9.85499 36.5178 10.8821 37.3622 12.3451 37.3622C12.662 37.3606 12.9673 37.3298 13.2613 37.2684C13.3364 37.5984 13.431 37.9285 13.5421 38.2552C13.9781 39.5396 13.6025 40.4358 13.5976 40.4456L12.8955 41.9031L14.4631 42.3124C14.4827 42.3189 14.9562 42.4466 15.549 42.4466C15.8184 42.4466 16.0747 42.4192 16.3164 42.3626C16.4993 42.3205 16.6741 42.2639 16.8422 42.1959C17.0447 42.5566 17.2913 42.8851 17.5787 43.1794C18.5829 44.2003 20.0052 44.7179 21.8079 44.7179H21.8144L23.1012 44.7017L20.4428 45.7953L22.4611 46.7611C23.1942 47.1154 24.0645 47.5343 24.9496 47.8546L24.6981 48.5374L25.3938 48.8512C25.4557 48.8786 26.7931 49.4724 29.0172 49.5985C29.0172 49.5985 29.5544 49.6228 29.8499 49.6228C30.1455 49.6228 30.6761 49.597 30.6761 49.597C32.8856 49.4675 34.213 48.8803 34.2752 48.8512L34.9723 48.5358L34.7176 47.8515C35.6288 47.5214 36.5301 47.0862 37.2323 46.7466L39.213 45.7937L36.5627 44.6986L37.8544 44.7148C39.6589 44.7148 41.0827 44.1971 42.0852 43.1747C42.371 42.8819 42.6177 42.5535 42.8218 42.1927C42.99 42.2607 43.1663 42.3173 43.3492 42.3593C43.5892 42.4159 43.8456 42.4435 44.115 42.4435C44.6979 42.4435 45.1764 42.3157 45.1894 42.3124L46.7636 41.9L46.0777 40.4699C46.0614 40.4326 45.6859 39.538 46.1219 38.252C46.2329 37.9236 46.3259 37.5936 46.4011 37.2651C46.6967 37.3266 47.0052 37.359 47.3237 37.359C49.1868 37.359 50.08 36.0599 50.2531 35.7785L51.0206 34.4552L49.5983 33.8761C48.6104 33.47 48.163 32.5268 47.9621 31.6874C49.7975 31.532 50.7838 29.9984 51.0843 29.0666ZM25.6631 16.5811L25.6436 16.586L25.6599 16.5649L25.6631 16.5811Z" fill="white"/>
<path d="M29.8319 16.502C28.3263 16.5036 27.1981 16.9921 26.9514 17.5664L29.8319 18.6924L32.7124 17.5664C32.4674 16.9921 31.3391 16.5036 29.8319 16.502Z" fill="white"/>
<path d="M29.861 46.308H29.8577H29.8331H29.8054H29.8037C28.8909 46.3145 27.6352 46.1284 27.0294 45.9537L26.3011 47.9063C26.7812 48.0762 28.4076 48.3997 29.8331 48.3997C31.2554 48.3997 32.8834 48.0746 33.3618 47.9063L32.6351 45.9537C32.0278 46.13 30.7736 46.3145 29.861 46.308Z" fill="white"/>
<path d="M35.3732 44.3669C34.831 44.6711 33.621 45.1273 32.9173 45.3392L33.5084 46.952C34.5975 46.6575 35.4955 46.3131 36.2386 45.9442L35.0122 45.5397L35.3732 44.3669Z" fill="white"/>
<path d="M24.2929 44.3669L24.6554 45.5397L23.4275 45.9442C24.1688 46.3131 25.0718 46.6575 26.156 46.952L26.7471 45.3392C26.0466 45.1273 24.835 44.6694 24.2929 44.3669Z" fill="white"/>
<path d="M29.8333 14.6349C30.9682 14.6349 32.0818 14.9034 32.9374 15.3759C33.0159 15.1153 33.1252 14.7999 33.2738 14.4699L32.9506 14.5087L32.6109 14.5443L32.4671 14.2386L32.0344 13.3327L31.2457 13.7403L30.9388 13.8956L30.6938 13.6562L29.8365 12.815L28.9809 13.6562L28.736 13.8956L28.429 13.7403L27.6354 13.3327L27.2076 14.2386L27.0607 14.5443L26.721 14.5087L26.3976 14.4699C26.5463 14.8015 26.6541 15.1153 26.734 15.3759C27.5913 14.9034 28.7017 14.6349 29.8333 14.6349Z" fill="white"/>
<path d="M47.1599 25.1048C47.307 25.155 47.4571 25.1776 47.6058 25.1776C48.2474 25.1776 48.868 24.7667 49.0819 24.2959C49.0819 24.2959 47.9046 24.2248 46.639 22.9516C46.2358 22.5391 45.8096 22.4162 45.4438 22.4162C44.8755 22.4162 44.4493 22.7138 44.4493 22.7138C45.9778 23.5194 46.2896 24.8136 47.1599 25.1048Z" fill="white"/>
<path d="M12.0612 25.1776C12.2098 25.1776 12.36 25.155 12.5038 25.1048C13.3773 24.8136 13.6908 23.5194 15.2193 22.7138C15.2193 22.7138 14.7914 22.4162 14.2264 22.4162C13.859 22.4162 13.4328 22.5391 13.0278 22.9516C11.764 24.2248 10.5867 24.2959 10.5867 24.2959C10.7973 24.7667 11.4195 25.1776 12.0612 25.1776Z" fill="white"/>
<path d="M47.5757 30.3639C47.6019 30.3654 47.6247 30.3654 47.6525 30.3654C49.2543 30.3654 49.7982 28.6652 49.7982 28.6652H49.7671C49.4732 28.6652 47.0907 28.5973 45.4072 26.4764C44.2985 25.0821 43.3905 23.8558 41.5959 23.3737L41.4196 23.3429L41.3804 23.165C41.3314 22.8932 41.5192 22.6393 41.9455 22.3642C44.4209 20.7579 42.7406 18.7098 42.7406 18.7098C42.7406 18.7098 42.0336 20.3486 40.4514 20.3486C40.4137 20.3486 40.3729 20.3469 40.3338 20.3469C40.1542 20.3373 39.9811 20.3307 39.8062 20.2937L39.514 20.2369C39.514 20.2369 39.9648 19.0221 38.8772 17.9059C38.0574 17.0631 37.0598 16.9207 36.4833 16.9207C36.1926 16.9207 36.0081 16.9578 36.0081 16.9578C36.5552 17.6664 36.9503 18.8409 36.3184 19.5656C35.7731 20.1884 34.4405 20.2191 34.4405 21.1477C34.4405 21.5409 34.8112 22.0003 35.4774 22.4128C37.4811 23.6633 39.4699 25.3214 40.2961 27.5442C41.3298 30.3169 40.1656 32.1563 38.5033 33.2111C38.5033 33.2111 39.0242 33.6866 39.7802 33.7465C39.9337 33.761 40.084 33.7675 40.2244 33.7675C41.8197 33.7675 42.6443 33.0266 42.6443 33.0266C42.6443 33.0266 42.5087 34.0506 41.6776 35.0018C40.9118 35.8802 39.9059 36.3963 38.3726 36.4189C38.3726 36.4189 38.3236 37.1242 39.0029 37.7341C39.4372 38.1191 40.4415 38.2453 40.4415 38.2453C40.4415 38.2453 38.562 38.6222 38.3547 41.3724C38.2419 42.8622 37.8582 43.3799 37.8582 43.3799H37.8926C42.254 43.3799 42.1413 39.6738 42.1413 39.6738C42.1413 39.6738 42.4451 40.7705 43.6616 41.0569C43.8085 41.0958 43.9653 41.1103 44.1155 41.1103C44.5075 41.1103 44.8471 41.0197 44.8471 41.0197C44.8471 41.0197 44.2103 39.6884 44.8421 37.8263C45.3664 36.2814 45.2815 35.1361 45.2815 35.1361C45.2815 35.1361 45.8693 36.0161 47.3259 36.0243H47.3405C48.5538 36.0243 49.0828 35.1135 49.0828 35.1135C46.1747 33.9179 46.4621 30.0582 46.4621 30.0582C46.4621 30.0582 46.8393 30.3363 47.5757 30.3639ZM46.7004 34.3951C45.5182 33.8177 44.7703 32.2841 44.5891 31.7308C44.3931 34.7721 42.8941 36.8832 41.142 38.915C40.2325 39.9681 39.9158 40.9921 39.9158 40.9921C39.9158 40.9921 40.0904 39.8323 40.8774 38.8876C42.512 36.9414 44.065 34.5197 44.1809 31.7195C44.2609 29.7653 43.753 28.18 42.9611 26.8745C43.4036 28.235 43.3416 29.9012 41.8376 31.4557C41.8376 31.4557 44.8308 27.9016 40.6456 24.2586C38.9702 22.8723 37.1381 22.0165 36.1944 21.4099C39.6038 22.5115 41.2678 21.2982 41.2678 21.2982C40.1786 22.2332 38.7694 22.217 37.8957 22.0828C38.1326 22.1977 38.3792 22.3173 38.6453 22.4581C41.5192 24.0047 44.1025 26.5493 44.5434 30.0743V30.0467C45.2128 33.507 46.7004 34.3951 46.7004 34.3951Z" fill="white"/>
<path d="M19.2245 38.2453C19.2245 38.2453 20.2288 38.1208 20.6631 37.7341C21.3407 37.1242 21.2935 36.4189 21.2935 36.4189C19.7585 36.3979 18.7543 35.8802 17.9836 35.0035C17.1589 34.0522 17.0217 33.0282 17.0217 33.0282C17.0217 33.0282 17.8463 33.7692 19.4401 33.7692C19.5838 33.7692 19.7324 33.7626 19.8858 33.7481C20.6419 33.6882 21.1644 33.2126 21.1644 33.2126C19.5021 32.1579 18.3363 30.3169 19.3682 27.5442C20.1962 25.323 22.1833 23.6633 24.187 22.4128C24.8532 22.0003 25.2238 21.5424 25.2238 21.1477C25.2238 20.2191 23.893 20.1884 23.3476 19.5656C22.7158 18.8409 23.1125 17.6648 23.6579 16.9578C23.6579 16.9578 23.4766 16.9207 23.1843 16.9207C22.6096 16.9207 21.6118 17.0631 20.7921 17.9059C19.7013 19.0221 20.1537 20.2369 20.1537 20.2369L19.8614 20.2937C19.6867 20.3307 19.5119 20.3373 19.3339 20.3469C19.2932 20.3469 19.2572 20.3486 19.218 20.3486C17.6325 20.3486 16.9287 18.7114 16.9287 18.7114C16.9287 18.7114 15.2484 20.7595 17.7222 22.3659C18.1485 22.6409 18.3347 22.8948 18.2857 23.1666L18.2464 23.3446L18.0668 23.3754C16.2755 23.8574 15.366 25.0836 14.2572 26.4781C12.5769 28.5957 10.1978 28.6652 9.9007 28.6652H9.86793C9.86793 28.6652 10.4117 30.3654 12.0136 30.3654C12.0398 30.3654 12.0626 30.3654 12.0903 30.3639C12.8268 30.3379 13.2056 30.0582 13.2056 30.0582C13.2056 30.0582 13.4898 33.9163 10.5848 35.1135C10.5848 35.1135 11.1139 36.0243 12.3271 36.0243H12.3419C13.8 36.0161 14.3863 35.1361 14.3863 35.1361C14.3863 35.1361 14.3013 36.2814 14.8239 37.8263C15.4557 39.6884 14.8222 41.0197 14.8222 41.0197C14.8222 41.0197 15.1619 41.1103 15.5521 41.1103C15.704 41.1103 15.8591 41.0958 16.0045 41.0569C17.2192 40.7705 17.5247 39.6738 17.5247 39.6738C17.5247 39.6738 17.4136 43.3799 21.7752 43.3799H21.8061C21.8061 43.3799 21.4241 42.8622 21.313 41.3724C21.1041 38.6222 19.2245 38.2453 19.2245 38.2453ZM18.5241 38.915C16.772 36.8832 15.2745 34.7721 15.0769 31.7308C14.8957 32.2825 14.1511 33.8177 12.9689 34.3951C12.9689 34.3951 14.4548 33.507 15.1227 30.0467V30.0743C15.5652 26.551 18.1468 24.0047 21.0223 22.4581C21.2853 22.3157 21.5351 22.1961 21.7702 22.0828C20.8966 22.217 19.4874 22.2332 18.3983 21.2982C18.3983 21.2982 20.0622 22.5115 23.4701 21.4099C22.5263 22.0165 20.6958 22.8723 19.0204 24.2586C14.8336 27.9016 17.8284 31.4557 17.8284 31.4557C16.3229 29.8995 16.2625 28.235 16.705 26.8745C15.9114 28.1816 15.4052 29.7653 15.4868 31.7195C15.6011 34.5197 17.154 36.9414 18.7853 38.8876C19.574 39.8307 19.752 40.9921 19.752 40.9921C19.752 40.9921 19.4318 39.9681 18.5241 38.915Z" fill="white"/>
<path d="M26.6051 24.6956C26.6769 24.7715 26.7471 24.8541 26.8142 24.9365C26.8305 24.956 26.8451 24.9738 26.8614 24.9965C26.9235 25.0789 26.9872 25.1664 27.0477 25.2553C27.0606 25.273 27.0738 25.2941 27.0884 25.315C27.1619 25.4251 27.2305 25.5384 27.2991 25.6549C27.9277 26.7306 28.9353 27.3728 29.8284 27.3745C30.7233 27.3728 31.7275 26.7306 32.3595 25.6549C32.4297 25.5351 32.4999 25.4187 32.5733 25.3103C32.5848 25.2941 32.5963 25.2796 32.606 25.2634C32.6681 25.1712 32.7334 25.0806 32.802 24.9932C32.8166 24.9738 32.8297 24.9576 32.8428 24.9415C32.913 24.8557 32.9848 24.7716 33.0584 24.6939C33.0714 24.681 33.0811 24.6696 33.0926 24.66C33.4126 24.3348 33.7948 24.0872 34.2944 23.9498L34.0723 23.822H34.0593L33.1742 23.3125L32.2647 22.7964L29.835 24.1067L29.8284 24.1018L29.8235 24.1067L27.3921 22.7964L26.4843 23.3108L25.5976 23.8203H25.5878L25.3624 23.9482C25.8637 24.0856 26.2442 24.3299 26.5659 24.6551C26.5805 24.668 26.5903 24.6826 26.6051 24.6956ZM28.8454 24.5904H29.8741H30.9012V25.2892C30.6597 24.9965 30.1894 25.0564 30.1894 25.0564V26.0642C30.1894 26.0642 30.2073 26.5592 30.3819 26.7743H29.8741H29.3647C29.5426 26.5608 29.559 26.0642 29.559 26.0642V25.0564C29.559 25.0564 29.0903 24.9965 28.8454 25.2892V24.5904Z" fill="white"/>
<path d="M29.622 23.2347V19.1436L26.993 18.2602L27.687 22.2253L29.622 23.2347ZM29.057 20.1482V20.8049L28.9296 20.7467C28.9231 20.7419 28.737 20.6998 28.4104 20.4441C27.8715 20.0301 27.8618 19.6483 27.8618 19.6483L29.057 20.1482Z" fill="white"/>
<path d="M31.9789 22.2253L32.6696 18.2602L30.0423 19.1436V23.2347L31.9789 22.2253ZM30.6073 20.1482L31.8025 19.6499C31.8025 19.6499 31.7928 20.0317 31.2523 20.4458C30.9274 20.7014 30.7395 20.7434 30.733 20.7483L30.6056 20.8065V20.1482H30.6073Z" fill="white"/>
<path d="M25.9032 32.7194C26.1596 32.8116 26.4698 32.831 26.6282 32.831C26.6348 32.8116 26.6429 32.7873 26.6511 32.7582C26.6657 32.7113 26.6789 32.666 26.6887 32.6142C26.7328 32.3878 26.7491 32.1306 26.7523 31.9656C26.6445 31.8992 26.4927 31.7811 26.4078 31.6048C26.3099 31.401 26.171 31.3071 25.9668 31.3071C25.7023 31.3071 25.4183 31.464 25.2973 31.5385C25.2011 32.103 25.6207 32.6159 25.9032 32.7194Z" fill="white"/>
<path d="M31.7176 30.5482C31.2294 31.0739 30.2741 31.9896 30.2267 32.0365L30.1696 32.0948L27.1504 32.0478C27.1487 32.3439 27.0997 32.5962 27.0524 32.7807C27.0443 32.8114 27.0361 32.8437 27.0279 32.8761L30.6203 33.5151C30.9942 33.2563 32.0229 32.5121 32.4214 32.221C32.1307 31.8004 32.1029 31.3021 32.1682 30.9511C31.9789 30.8297 31.8335 30.6938 31.7176 30.5482Z" fill="white"/>
<path d="M32.1287 26.951C31.4329 27.6352 30.7651 27.8876 30.1692 27.9458C30.0613 27.9572 29.952 27.9635 29.8409 27.9635H29.8327H29.8262C29.7152 27.9635 29.6041 27.9572 29.4963 27.9458C29.3919 27.9361 29.2825 27.9199 29.1731 27.8957C29.1338 28.0493 29.0848 28.3712 29.2253 28.6754C29.351 28.952 29.6074 29.1574 29.9814 29.2934L30.107 29.3419L30.1087 29.4762C30.1087 29.5166 30.1381 30.3869 31.0966 30.6279C31.2534 30.4678 31.3954 30.3239 31.5 30.204C31.304 29.7479 31.4068 29.282 31.691 29.0539C31.678 29.1024 31.5538 30.2446 32.4781 30.6683L32.6299 30.7396L32.5842 30.8997C32.5694 30.9483 32.2609 32.0532 33.3794 32.464L33.577 32.5385L33.4888 32.7294C33.4693 32.7714 33.03 33.7745 34.0637 34.3438H36.3056V32.5806C35.5088 32.4834 35.1707 31.8494 35.0842 31.3996C34.7136 31.3365 34.4262 31.178 34.2301 30.9191C33.7598 30.306 34.1648 29.7447 34.1697 29.7139C34.1681 29.7188 34.1697 30.3173 34.5421 30.6862C34.7266 30.8641 34.9454 31.0017 35.2768 31.0324L35.4401 31.047L35.4549 31.212C35.458 31.2475 35.5479 32.0564 36.3072 32.1842L36.3056 28.5832C36.3056 28.0251 36.4705 27.4638 36.6681 26.946H32.1287V26.951Z" fill="white"/>
<path d="M26.0959 28.6004L26.0356 30.8943L26.2984 30.9332L26.9418 28.7331L26.6152 28.0569L26.0959 28.6004Z" fill="white"/>
<path d="M33.19 39.1205C33.2096 39.1205 33.2325 39.1238 33.2537 39.1286C33.6538 39.2419 33.7551 40.6719 34.4572 40.7997C34.5258 40.8143 34.5894 40.8175 34.645 40.8175C34.8475 40.8175 34.9683 40.7317 35.0989 40.5797C35.0989 40.5797 34.7462 40.0297 34.4817 39.6593C34.1306 39.1739 33.858 38.5866 33.2048 38.5866C33.19 38.5866 33.1705 38.5866 33.1542 38.5884C32.9386 38.5997 32.8063 38.7031 32.8063 38.7031C32.5417 38.5382 32.2953 38.4815 32.0714 38.4815C31.6617 38.4815 31.3433 38.6676 31.1848 38.6676H31.1783L29.7184 38.5253C29.4899 38.5042 29.3103 38.2761 29.245 38.1872C29.2286 38.1628 29.2204 38.1483 29.2204 38.1483C29.2204 38.1095 29.2204 38.0691 29.2172 38.0334C29.1682 36.8509 28.244 36.3446 27.9158 36.3364C27.9158 36.3364 27.9549 36.1116 27.8652 36.0259L27.5435 36.4125L26.487 35.8867L27.2397 36.7587L26.6012 37.4688C26.5212 37.5498 26.531 37.6598 26.5637 37.7051L26.8397 37.9461L27.1891 37.7358C27.2071 37.7229 27.2381 37.7196 27.2773 37.7196C27.3736 37.7196 27.519 37.7438 27.6496 37.7438C27.7916 37.7438 27.9158 37.7131 27.9305 37.5804C27.8864 38.0189 27.4765 38.7808 27.746 39.3794L27.9452 39.8308L26.6552 39.6463L26.051 40.6574C25.8648 40.9939 25.8355 41.3578 26.015 41.5552L26.2403 41.8351C26.2403 41.8351 26.5572 41.5018 26.629 41.2834L26.5261 41.1718C26.4396 41.078 26.4445 40.9939 26.4968 40.892L26.8756 40.269L28.3991 40.625L28.479 40.4891C28.5819 40.3193 28.7306 40.2674 28.8939 40.2674C28.9608 40.2674 29.0294 40.2756 29.1012 40.2869C29.3838 40.3419 29.8492 40.4163 30.3146 40.4163C30.8256 40.4163 31.3318 40.3258 31.6012 40.0265C32.1531 40.837 33.2717 40.9663 33.1835 41.3772L32.8896 42.7653C33.084 42.7572 33.2717 42.7442 33.4497 42.7199L33.7289 41.2752C33.76 41.1183 33.7893 40.9064 33.7893 40.9064C33.6815 40.7981 33.4203 40.5684 33.2734 40.2901C33.0757 39.9148 33.1835 39.7191 32.999 39.2305C33.0055 39.2338 33.061 39.1205 33.19 39.1205ZM27.4912 37.0919C27.4161 37.0903 27.3622 37.0272 27.3654 36.9529C27.372 36.8817 27.4324 36.825 27.5058 36.8315C27.581 36.8348 27.6349 36.8994 27.6317 36.9707C27.625 37.0418 27.5631 37.0968 27.4912 37.0919Z" fill="white"/>
<path d="M25.4114 40.4342C25.4114 40.4342 25.9159 40.2288 25.9616 40.0815L25.8947 39.9149C25.8473 39.8065 25.8539 39.6884 25.9453 39.6238L26.4907 39.25L27.4019 39.4231C27.4019 39.4231 27.2369 39.2193 27.2533 38.9459L26.3846 38.7631L25.5648 39.2581C25.2138 39.5185 25.1876 39.944 25.3036 40.1963L25.4114 40.4342Z" fill="white"/>
<path d="M31.8485 42.7863C32.0118 42.7799 32.1914 42.7767 32.389 42.7767C32.389 42.7767 32.8577 41.4194 32.8837 41.3758C32.6209 41.2609 32.0755 40.9745 31.8648 40.8435C32.0037 41.049 32.3417 41.2851 32.2748 41.4663L31.8485 42.7863Z" fill="white"/>
<path d="M36.3103 34.7368H23.3564V39.564C23.3564 41.5377 24.7984 42.7737 26.926 42.7737C28.7042 42.7737 29.1728 42.8415 29.8342 43.4919C30.2898 43.0422 30.667 42.8739 31.441 42.8108L31.4589 42.7364L31.8671 41.4859C31.8443 41.4584 31.1765 40.7062 31.1765 40.7062C30.9119 40.7936 30.6899 40.8082 30.3159 40.8082C29.9322 40.8082 29.4995 40.7644 29.0308 40.6771C28.9834 40.6658 28.9394 40.6625 28.8952 40.6625C28.8381 40.6625 28.8332 40.6674 28.8185 40.6949L28.7369 40.8275L28.5883 41.0702L28.3091 41.0071L27.0664 40.7175L26.8965 40.9958L26.9226 41.0249L27.0745 41.1899L27.0076 41.4051C26.9161 41.6865 26.6189 42.0149 26.5292 42.1056L26.2189 42.4356L25.9365 42.0813L25.7242 41.8176C25.5004 41.5701 25.4482 41.1899 25.5739 40.792C25.5706 40.7951 25.5657 40.7967 25.5609 40.7967L25.2098 40.9408L25.0513 40.601L24.9403 40.3601C24.7494 39.9362 24.8194 39.3166 25.334 38.9428L26.3349 38.3831L27.2869 38.5693C27.3097 38.4786 27.344 38.155 27.3717 38.0726C27.3538 38.071 27.3359 38.0661 27.3178 38.0661L26.7692 38.2683L26.2401 37.906C26.2401 37.906 26.0327 37.7085 26.2205 37.5112L26.7332 36.7429L25.4351 35.1283L27.4305 35.9405L27.5628 35.7771L27.8322 35.4583L28.1376 35.7463C28.2241 35.8288 28.2731 35.9307 28.2975 36.0326C28.8478 36.2446 29.8325 36.8706 29.919 37.8881L29.6105 38.0111V38.0192C29.6807 38.1017 29.7394 38.1357 29.7573 38.1388L31.1813 38.2781C31.2172 38.2715 31.263 38.2554 31.3136 38.2408C31.49 38.181 31.7561 38.0952 32.0712 38.0952C32.3276 38.0952 32.5757 38.1534 32.8142 38.2635C32.9024 38.2311 33.0102 38.2068 33.1343 38.1988L33.2028 38.1972C33.9654 38.1972 34.3442 38.7616 34.6481 39.2115C34.6986 39.289 34.7492 39.3635 34.8015 39.4363C35.0676 39.8084 35.4154 40.3535 35.4301 40.3762L35.5869 40.6189L35.3941 40.8405C35.2456 41.0103 35.0235 41.2094 34.6414 41.2094C34.5631 41.2094 34.4765 41.2012 34.3835 41.1834C34.3019 41.1689 34.2284 41.1445 34.1565 41.1155C34.1451 41.1899 34.1304 41.2789 34.1156 41.3548L33.8658 42.6458C35.3599 42.2819 36.3087 41.164 36.3087 39.5657L36.3103 34.7368Z" fill="#FFDD2D"/>
<path d="M23.3535 34.3486H33.4269C32.9239 33.8342 32.9306 33.1823 33.0595 32.7584C32.9126 32.6888 32.7917 32.6046 32.684 32.5141C32.2904 32.802 31.0886 33.6691 30.7751 33.8858L30.7082 33.9312L26.7549 33.2227H26.6749C26.5802 33.2227 26.4414 33.2194 26.2895 33.2016C26.247 33.3779 26.0936 33.4993 25.9172 33.4993C25.8976 33.4993 25.8747 33.4977 25.8535 33.4928C25.7506 33.475 25.6609 33.4232 25.6005 33.3375C25.5384 33.2534 25.5139 33.1531 25.5319 33.0496L25.5466 32.9654C25.1383 32.6807 24.7628 32.0449 24.9293 31.3752L24.9456 31.3041L25.0028 31.2636C25.011 31.2572 25.0795 31.2119 25.1808 31.1536L24.8934 31.1099C24.7856 31.0905 24.7138 30.9918 24.7302 30.8867C24.7481 30.7799 24.8493 30.7038 24.9554 30.7249L25.6396 30.8317L25.7017 28.4439L26.7206 27.3762L27.3558 28.7012L26.6846 30.9983L27.2889 31.0921C27.395 31.1083 27.4685 31.2069 27.4522 31.3153C27.4358 31.4108 27.3542 31.4771 27.2578 31.4771C27.248 31.4771 27.2366 31.4771 27.2268 31.4755L26.7352 31.3963C26.7419 31.4108 26.7516 31.4188 26.7582 31.435C26.8104 31.5418 26.9264 31.6195 26.9949 31.6518L30.0093 31.6987C30.1366 31.5758 30.4535 31.2684 30.7784 30.9433C30.0371 30.665 29.7676 30.0309 29.7218 29.6102C29.3072 29.4355 29.0214 29.1735 28.863 28.8321C28.6703 28.41 28.7389 27.9877 28.7895 27.7823C28.3878 27.6367 27.9649 27.3715 27.5338 26.9476H22.9943C23.1887 27.4651 23.3535 28.0266 23.3535 28.5847V34.3486Z" fill="#FFDD2D"/>
<path d="M27.5052 36.8314C27.4317 36.8249 27.3697 36.8815 27.3647 36.9527C27.3598 37.027 27.4153 37.0901 27.4905 37.0917C27.5622 37.0982 27.626 37.0432 27.6325 36.9705C27.6325 36.8992 27.5803 36.833 27.5052 36.8314Z" fill="black"/>
<path d="M36.2916 45.5847L35.5453 45.3015L35.7511 44.538L35.978 43.7049C35.978 43.7049 34.6553 44.4151 32.7922 44.949C32.2632 45.0994 31.8631 45.1673 31.8631 45.1673V45.7334C31.8631 45.7334 30.867 45.905 29.8595 45.905H29.848H29.8334H29.8138H29.8023C28.7949 45.905 27.7988 45.7334 27.7988 45.7334V45.1673C27.7988 45.1673 27.397 45.0994 26.8696 44.949C25.0064 44.4151 23.6855 43.7049 23.6855 43.7049L23.9091 44.538L24.1198 45.3015L23.3719 45.5847L22.5424 45.892C23.4944 46.3466 24.8121 47.0099 26.0189 47.3366L25.7348 48.1067C25.7348 48.1067 27.2648 48.7974 29.8138 48.804V48.8056H29.822H29.8334H29.8432H29.8497V48.804C32.402 48.7974 33.9303 48.1067 33.9303 48.1067L33.6445 47.3366C34.8512 47.0099 36.1724 46.3466 37.1194 45.892L36.2916 45.5847ZM23.4274 45.9438L24.6554 45.5394L24.2929 44.3665C24.8333 44.6707 26.0467 45.1268 26.7487 45.3388L26.1561 46.9516C25.0717 46.6557 24.1688 46.311 23.4274 45.9438ZM29.8334 48.3995C28.4078 48.3995 26.7798 48.0743 26.3014 47.9061L27.0296 45.9535C27.6338 46.1283 28.8912 46.3142 29.8039 46.3077H29.8056H29.8334H29.8578H29.8612C30.774 46.3142 32.028 46.1283 32.6355 45.9535L33.362 47.9061C32.8837 48.0759 31.2573 48.3995 29.8334 48.3995ZM33.5074 46.9516L32.9164 45.3388C33.6201 45.1268 34.83 44.6707 35.3722 44.3665L35.0113 45.5394L36.2377 45.9438C35.4946 46.311 34.5965 46.6557 33.5074 46.9516Z" fill="black"/>
<path d="M29.8317 15.1072C31.3503 15.1072 32.5651 15.6055 33.2363 16.1378C33.2363 16.1378 33.4354 14.9487 34.1164 13.8989L32.8933 14.0363L32.2533 12.6888L31.0237 13.3165L29.8317 12.1485L28.6429 13.3165L27.4117 12.6888L26.7732 14.0363L25.5502 13.8989C26.231 14.9487 26.4303 16.1378 26.4303 16.1378C27.103 15.6055 28.3146 15.1072 29.8317 15.1072ZM26.7176 14.5087L27.0573 14.5443L27.2043 14.2386L27.6321 13.3327L28.4257 13.7386L28.7327 13.894L28.9777 13.6546L29.8333 12.8134L30.6906 13.6546L30.9355 13.894L31.2425 13.7386L32.0312 13.3327L32.4639 14.2386L32.6076 14.5443L32.9472 14.5087L33.2706 14.4699C33.122 14.8016 33.0125 15.1153 32.9341 15.3758C32.0785 14.9035 30.9648 14.6349 29.83 14.6349C28.7001 14.6349 27.588 14.9035 26.7291 15.3758C26.6492 15.1153 26.5414 14.7999 26.3927 14.4699L26.7176 14.5087Z" fill="black"/>
<path d="M47.6506 30.8848C49.6151 30.8848 50.2714 28.9048 50.2992 28.8207L50.518 28.1234L49.7815 28.1461H49.7784C49.5187 28.1461 47.3518 28.0894 45.8153 26.1546L45.6699 25.9751C44.6657 24.7101 43.7137 23.5081 42.0122 22.9596C42.0612 22.916 42.1314 22.861 42.2278 22.7995C43.1308 22.2107 43.6565 21.4956 43.7888 20.6658C43.9815 19.4169 43.1781 18.422 43.1422 18.3815L42.5952 17.7118L42.2539 18.5061C42.2311 18.5562 41.6562 19.8278 40.4479 19.8278H40.3581C40.2748 19.8229 40.1964 19.8197 40.118 19.8132C40.1606 19.2454 40.056 18.367 39.2526 17.5435C38.2875 16.5519 37.102 16.403 36.4816 16.403C36.1501 16.403 35.9296 16.4435 35.9067 16.4468L35.0806 16.6085L35.59 17.2734C35.9901 17.7862 36.3526 18.7326 35.923 19.2276C35.7859 19.3845 35.5035 19.5123 35.2324 19.6401C34.6756 19.894 33.9163 20.2467 33.9163 21.1462C33.9163 21.7286 34.3719 22.3369 35.1981 22.8545C37.6443 24.3784 39.153 25.9686 39.8045 27.7238C40.812 30.4238 39.4975 31.9638 38.2206 32.7744L37.6474 33.1399L38.1488 33.5961C38.2157 33.6544 38.8297 34.1898 39.7359 34.2675C39.9074 34.2788 40.0723 34.2884 40.2258 34.2884C40.8071 34.2884 41.302 34.1979 41.7036 34.0765C41.5925 34.2691 41.457 34.4648 41.2856 34.6622C40.5557 35.5001 39.6576 35.882 38.366 35.9014L37.8858 35.9095L37.8483 36.3866C37.8434 36.4821 37.8075 37.367 38.6533 38.1193C38.7823 38.2356 38.9391 38.3312 39.1024 38.4105C38.5292 38.9217 37.9462 39.8114 37.8337 41.3369C37.7389 42.61 37.4319 43.0808 37.4287 43.0855L36.898 43.8879L37.8565 43.901C39.4405 43.901 40.6536 43.4674 41.4945 42.61C41.991 42.102 42.2752 41.5293 42.4434 41.0215C42.7193 41.2543 43.0753 41.4581 43.5389 41.5665C43.7154 41.607 43.9081 41.6296 44.1154 41.6296C44.5629 41.6296 44.9368 41.5358 44.9793 41.5261L45.5915 41.3643L45.3205 40.7981C45.3009 40.7529 44.7898 39.6172 45.34 37.9962C45.5768 37.2958 45.6977 36.6681 45.7564 36.1796C46.1418 36.3785 46.6579 36.5435 47.3257 36.5451C48.841 36.5451 49.5089 35.4241 49.54 35.3772L49.8387 34.8627L49.2852 34.6363C47.4792 33.8938 47.0792 31.8991 46.9991 30.8185C47.1624 30.8492 47.3486 30.8784 47.5592 30.8848H47.6506ZM49.0827 35.1134C49.0827 35.1134 48.5536 36.0243 47.3404 36.0243H47.3257C45.8691 36.0162 45.2813 35.1361 45.2813 35.1361C45.2813 35.1361 45.3662 36.2815 44.8404 37.8264C44.2085 39.6884 44.8453 41.0198 44.8453 41.0198C44.8453 41.0198 44.5057 41.1104 44.1138 41.1104C43.9635 41.1104 43.8068 41.0958 43.6598 41.0569C42.4434 40.7707 42.1396 39.6738 42.1396 39.6738C42.1396 39.6738 42.2522 43.38 37.8907 43.38H37.8565C37.8565 43.38 38.2402 42.8623 38.3545 41.3724C38.5618 38.6223 40.4414 38.2454 40.4414 38.2454C40.4414 38.2454 39.4387 38.1209 39.0044 37.7343C38.325 37.1243 38.3724 36.419 38.3724 36.419C39.9074 36.398 40.9116 35.8804 41.6774 35.0019C42.507 34.0507 42.6442 33.0267 42.6442 33.0267C42.6442 33.0267 41.8195 33.7676 40.2242 33.7676C40.0838 33.7676 39.9335 33.7611 39.78 33.7465C39.0256 33.6867 38.5031 33.211 38.5031 33.211C40.1637 32.1563 41.3296 30.3154 40.2961 27.5426C39.4681 25.3215 37.4793 23.6618 35.4773 22.4113C34.8111 21.9987 34.4404 21.541 34.4404 21.1462C34.4404 20.2177 35.7729 20.1885 36.32 19.5641C36.9501 18.8393 36.555 17.6633 36.008 16.9564C36.008 16.9564 36.1925 16.9191 36.4832 16.9191C37.0596 16.9191 38.0573 17.0631 38.877 17.9043C39.9662 19.0205 39.5138 20.2354 39.5138 20.2354L39.8062 20.2921C39.9809 20.3293 40.154 20.3358 40.3336 20.3438C40.3727 20.3438 40.412 20.3454 40.4511 20.3454C42.0334 20.3454 42.7405 18.7067 42.7405 18.7067C42.7405 18.7067 44.4225 20.7564 41.9469 22.3611C41.5207 22.6361 41.3329 22.89 41.3819 23.1619L41.4212 23.3398L41.5974 23.3706C43.392 23.8526 44.2999 25.0789 45.4086 26.4733C47.0922 28.5942 49.4747 28.6621 49.7685 28.6621H49.7996C49.7996 28.6621 49.2558 30.3623 47.6539 30.3623C47.6278 30.3623 47.6049 30.3623 47.5772 30.3607C46.8408 30.3348 46.4635 30.055 46.4635 30.055C46.4635 30.055 46.1745 33.9164 49.0827 35.1134Z" fill="black"/>
<path d="M44.1994 23.1734C44.9325 23.56 45.3587 24.0777 45.7327 24.5371C46.1001 24.9852 46.4495 25.4171 46.9948 25.5967C47.1892 25.6631 47.3949 25.6938 47.6039 25.6938C48.4236 25.6938 49.2467 25.1971 49.5585 24.5096L49.872 23.8205L49.1128 23.7752C49.0768 23.7736 48.1004 23.6862 47.0129 22.5845C46.5654 22.1333 46.0249 21.8954 45.4419 21.8954C44.7301 21.8954 44.2026 22.248 44.1438 22.2837L43.4449 22.7706L44.1994 23.1734ZM45.4436 22.4164C45.8093 22.4164 46.2356 22.5392 46.639 22.9518C47.9043 24.225 49.0817 24.2961 49.0817 24.2961C48.8679 24.7652 48.2474 25.1777 47.6055 25.1777C47.457 25.1777 47.3084 25.1551 47.1598 25.105C46.2895 24.8138 45.9775 23.5196 44.4475 22.7139C44.4475 22.7139 44.8754 22.4164 45.4436 22.4164Z" fill="black"/>
<path d="M44.5422 30.047V30.073C44.1014 26.5496 41.5181 24.0049 38.6442 22.4568C38.3781 22.316 38.1331 22.1964 37.8947 22.0815C38.7699 22.2157 40.1791 22.2319 41.2666 21.2968C41.2666 21.2968 39.6027 22.5102 36.1932 21.4085C37.1371 22.0151 38.9708 22.871 40.6445 24.2573C44.8297 27.9003 41.8349 31.4544 41.8349 31.4544C43.3388 29.8999 43.4008 28.2337 42.9584 26.8732C43.7503 28.1786 44.2565 29.7639 44.178 31.7182C44.0622 34.5184 42.5093 36.9401 40.8747 38.8863C40.0893 39.831 39.913 40.9909 39.913 40.9909C39.913 40.9909 40.2297 39.9669 41.1392 38.9137C42.8914 36.882 44.3887 34.7707 44.5847 31.7294C44.7659 32.2812 45.5122 33.8164 46.696 34.3939C46.6993 34.3955 45.2117 33.5074 44.5422 30.047Z" fill="black"/>
<path d="M22.2367 43.0839C22.2351 43.0791 21.9314 42.6083 21.8335 41.3351C21.7192 39.8097 21.1377 38.9199 20.563 38.4087C20.7296 38.3311 20.883 38.2356 21.0121 38.1176C21.8563 37.3653 21.8203 36.4805 21.8154 36.385L21.7828 35.9078L21.2994 35.8997C20.0111 35.8786 19.1113 35.4969 18.3814 34.6605C18.2116 34.4632 18.0745 34.2674 17.9634 34.0749C18.365 34.1962 18.8565 34.2869 19.4395 34.2869C19.5963 34.2869 19.758 34.277 19.9294 34.2658C20.8356 34.1881 21.4497 33.6543 21.5182 33.5945L22.0195 33.1383L21.4464 32.7726C20.1645 31.9606 18.8549 30.4205 19.8608 27.7222C20.5123 25.9669 22.0195 24.3767 24.4689 22.8528C25.2952 22.3351 25.7474 21.727 25.7474 21.1446C25.7474 20.2451 24.9898 19.8908 24.433 19.6384C24.1619 19.5106 23.8795 19.3829 23.7423 19.226C23.3112 18.7325 23.6753 17.7846 24.0737 17.2717L24.5865 16.6069L23.7569 16.4451C23.7325 16.4419 23.5153 16.4015 23.1822 16.4015C22.5616 16.4015 21.3795 16.5503 20.4127 17.5419C19.6077 18.367 19.5017 19.2454 19.5424 19.8115C19.464 19.818 19.3857 19.8213 19.304 19.8261H19.2159C18.0042 19.8261 17.4311 18.5546 17.4083 18.5044L17.0669 17.7101L16.515 18.3798C16.484 18.4204 15.6774 19.4168 15.8733 20.6641C16.0039 21.4939 16.5297 22.2089 17.4327 22.7979C17.5306 22.8593 17.5992 22.9143 17.6482 22.9581C15.9484 23.5063 14.998 24.71 13.9938 25.975L13.8484 26.1546C12.3136 28.0893 10.1417 28.1461 9.88211 28.1461L9.14249 28.1234L9.36776 28.8205C9.3939 28.9047 10.0487 30.8848 12.0147 30.8848L12.1094 30.8816C12.3168 30.8751 12.503 30.8476 12.6696 30.8152C12.5878 31.8942 12.1878 33.8889 10.3801 34.633L9.82822 34.8595L10.1271 35.3739C10.1565 35.4208 10.826 36.542 12.3445 36.542C13.0075 36.5403 13.5235 36.3752 13.9105 36.1763C13.9693 36.6648 14.0901 37.2925 14.3269 37.993C14.8772 39.6139 14.3645 40.7496 14.3448 40.7949L14.0738 41.3611L14.6878 41.5229C14.7286 41.5325 15.1058 41.6263 15.5516 41.6263C15.7606 41.6263 15.9533 41.6037 16.1264 41.5632C16.5918 41.4549 16.951 41.2511 17.2236 41.0181C17.3902 41.526 17.676 42.0987 18.1708 42.6067C19.0133 43.4641 20.2249 43.8976 21.8088 43.8976L22.769 43.8847L22.2367 43.0839ZM21.7729 43.38C17.4114 43.38 17.5226 39.6738 17.5226 39.6738C17.5226 39.6738 17.2189 40.7706 16.0023 41.057C15.857 41.0957 15.7018 41.1104 15.5499 41.1104C15.1581 41.1104 14.82 41.0197 14.82 41.0197C14.82 41.0197 15.4536 39.6883 14.8216 37.8264C14.2992 36.2814 14.3841 35.1362 14.3841 35.1362C14.3841 35.1362 13.7978 36.0162 12.3397 36.0242H12.325C11.1118 36.0242 10.5827 35.1135 10.5827 35.1135C13.4892 33.918 13.2034 30.0581 13.2034 30.0581C13.2034 30.0581 12.8263 30.3364 12.0882 30.3639C12.062 30.3655 12.0376 30.3655 12.0115 30.3655C10.4079 30.3655 9.86579 28.6653 9.86579 28.6653H9.89843C10.194 28.6653 12.5732 28.5973 14.2567 26.4765C15.3654 25.0821 16.2749 23.8574 18.0662 23.3738L18.2458 23.3431L18.2851 23.1651C18.3341 22.8933 18.1479 22.6393 17.7218 22.3643C15.2462 20.7579 16.9281 18.7099 16.9281 18.7099C16.9281 18.7099 17.6319 20.3471 19.2175 20.3471C19.2566 20.3471 19.2926 20.3454 19.3334 20.3454C19.5113 20.3356 19.6878 20.3292 19.8608 20.292L20.1531 20.2354C20.1531 20.2354 19.7008 19.0205 20.7916 17.9043C21.6113 17.0615 22.609 16.9191 23.1837 16.9191C23.4761 16.9191 23.6573 16.9563 23.6573 16.9563C23.112 17.6648 22.7168 18.8393 23.347 19.5641C23.8924 20.1869 25.2233 20.2176 25.2233 21.1462C25.2233 21.5392 24.8527 21.9988 24.1865 22.4112C22.1828 23.6617 20.194 25.3215 19.3677 27.5426C18.3357 30.3154 19.5 32.1546 21.1639 33.2111C21.1639 33.2111 20.6414 33.6866 19.8854 33.7465C19.7318 33.7611 19.5833 33.7675 19.4395 33.7675C17.8458 33.7675 17.0212 33.0266 17.0212 33.0266C17.0212 33.0266 17.1583 34.0507 17.983 35.0019C18.7537 35.8802 19.758 36.3979 21.2929 36.419C21.2929 36.419 21.3419 37.1243 20.6626 37.7341C20.2267 38.1191 19.2239 38.2453 19.2239 38.2453C19.2239 38.2453 21.1051 38.6223 21.3109 41.3724C21.4235 42.8623 21.804 43.38 21.804 43.38H21.7729Z" fill="black"/>
<path d="M12.0604 25.6955C12.271 25.6955 12.4768 25.6647 12.671 25.5983C13.2197 25.4188 13.5675 24.9869 13.9349 24.5388C14.3105 24.0793 14.7334 23.5617 15.4666 23.1751L16.221 22.7739L15.5204 22.2869C15.4616 22.2497 14.9359 21.8987 14.2256 21.8987C13.641 21.8987 13.0989 22.1349 12.6531 22.5878C11.5656 23.6879 10.5907 23.7768 10.5548 23.7785L9.79552 23.8221L10.1074 24.5129C10.4209 25.1971 11.2422 25.6955 12.0604 25.6955ZM13.027 22.9535C13.432 22.5408 13.8582 22.418 14.2256 22.418C14.7905 22.418 15.2183 22.7155 15.2183 22.7155C13.69 23.5228 13.3765 24.8155 12.5028 25.1066C12.3592 25.1567 12.2089 25.1794 12.0604 25.1794C11.4186 25.1794 10.7981 24.7685 10.5858 24.2978C10.5858 24.2962 11.7615 24.2249 13.027 22.9535Z" fill="black"/>
<path d="M15.4864 31.7197C15.4048 29.7655 15.911 28.1801 16.7046 26.8746C16.262 28.2351 16.3225 29.9014 17.8281 31.456C17.8281 31.456 14.8332 27.9019 19.02 24.2588C20.6954 22.8724 22.5276 22.0166 23.4698 21.41C20.0619 22.5116 18.3979 21.2984 18.3979 21.2984C19.4854 22.2334 20.8946 22.2173 21.7699 22.0814C21.5331 22.1962 21.2849 22.3159 21.0219 22.4567C18.1448 24.0048 15.5632 26.5495 15.1206 30.0728V30.0454C14.4528 33.5057 12.9668 34.3938 12.9668 34.3938C14.1491 33.8162 14.8937 32.2826 15.0749 31.7294C15.2726 34.7707 16.7699 36.8818 18.522 38.9137C19.4315 39.9667 19.7516 40.9908 19.7516 40.9908C19.7516 40.9908 19.5737 39.8308 18.785 38.8861C17.1536 36.9433 15.6007 34.5199 15.4864 31.7197Z" fill="black"/>
<path d="M28.8489 24.5905V25.2893C29.0922 24.9965 29.5625 25.0565 29.5625 25.0565V26.0643C29.5625 26.0643 29.5461 26.5593 29.3681 26.7744H29.8776H30.3854C30.2108 26.5609 30.1927 26.0643 30.1927 26.0643V25.0565C30.1927 25.0565 30.663 24.9965 30.9047 25.2893V24.5905H29.8776H28.8489Z" fill="black"/>
<path d="M28.4092 20.4459C28.7341 20.7016 28.9219 20.7436 28.9285 20.7486L29.0558 20.8067V20.1483L27.8606 19.6501C27.8606 19.6517 27.872 20.0318 28.4092 20.4459Z" fill="black"/>
<path d="M31.2518 20.4459C31.7923 20.0318 31.8021 19.6501 31.8021 19.6501L30.6068 20.1483V20.8067L30.7325 20.7486C30.7407 20.7436 30.9268 20.7016 31.2518 20.4459Z" fill="black"/>
<path d="M33.4069 17.7653C33.4069 16.7672 31.7103 15.8694 29.8374 15.8694H29.8357H29.8309H29.826C27.953 15.8694 26.2564 16.7672 26.2564 17.7653L26.294 18.0112L27.0418 22.2641L26.2908 22.6961L24.3475 23.8204H24.3541C24.3541 23.8204 23.9165 24.042 23.714 24.1795C22.9743 24.6892 22.8176 25.4316 23.247 25.739C23.3532 25.134 23.8365 24.4998 24.7411 24.4998C25.3926 24.4998 25.889 24.833 26.2908 25.333C26.3936 25.4591 26.4916 25.5934 26.583 25.739C26.6956 25.9217 26.8083 26.082 26.9211 26.2373H21.9162C22.2836 26.9701 22.633 27.7466 22.633 28.5894V39.5639C22.633 42.2202 24.6954 43.4885 26.9259 43.4885C28.6503 43.4885 28.8822 43.4109 29.8342 44.3491C30.7813 43.4093 31.0131 43.4885 32.7391 43.4885C34.9712 43.4885 37.0304 42.2202 37.0304 39.5639V28.5894C37.0304 27.7466 37.3799 26.9701 37.7489 26.2373H32.7423C32.8534 26.0835 32.9661 25.9217 33.0787 25.739C33.1718 25.5934 33.2681 25.4591 33.3694 25.333C33.7743 24.8315 34.2691 24.4998 34.9206 24.4998C35.8252 24.4998 36.307 25.1324 36.4147 25.739C36.8443 25.4316 36.6891 24.6892 35.9444 24.1795C35.7452 24.042 35.3076 23.8204 35.3076 23.8204H35.3142L33.371 22.6961L32.6231 22.2641L33.371 18.0112L33.4069 17.7653ZM26.9928 18.2603L29.6219 19.1436V23.2348L27.6869 22.2237L26.9928 18.2603ZM27.5366 26.9506C27.9678 27.376 28.3907 27.6398 28.7923 27.7853C28.74 27.9908 28.6716 28.4147 28.8658 28.8368C29.0242 29.1766 29.3116 29.4387 29.7247 29.6134C29.7704 30.0341 30.0382 30.6665 30.7813 30.9465C30.4563 31.2715 30.1394 31.5773 30.0105 31.7019L26.9977 31.6549C26.9292 31.6209 26.8132 31.545 26.7611 31.4366C26.7545 31.422 26.7447 31.4139 26.7399 31.3977L27.2312 31.477C27.2428 31.4786 27.2524 31.4786 27.2623 31.4786C27.357 31.4786 27.4403 31.4139 27.4566 31.3168C27.4729 31.2085 27.3995 31.1097 27.2934 31.0935L26.6892 30.9997L27.3603 28.7042L26.7251 27.3793L25.7062 28.4471L25.6441 30.8347L24.96 30.728C24.8537 30.7069 24.7525 30.7846 24.7346 30.8897C24.7182 30.995 24.7901 31.0935 24.8978 31.113L25.1852 31.1566C25.0824 31.215 25.0155 31.2602 25.0073 31.2666L24.9484 31.3071L24.9321 31.3784C24.7656 32.0481 25.1428 32.6838 25.5495 32.9685L25.5347 33.0526C25.5184 33.1562 25.5412 33.2564 25.6033 33.3406C25.6621 33.4264 25.7535 33.4781 25.8547 33.4959C25.876 33.4991 25.8988 33.5007 25.9185 33.5007C26.0947 33.5007 26.2483 33.3794 26.2924 33.2032C26.4442 33.2209 26.583 33.2241 26.6777 33.2241H26.7578L30.711 33.931L30.7779 33.8874C31.093 33.669 32.2933 32.802 32.6868 32.5155C32.7946 32.6078 32.9154 32.692 33.0624 32.7614C32.935 33.1852 32.9269 33.8372 33.4315 34.3517H23.3564V28.591C23.3564 28.0329 23.1915 27.4716 22.9972 26.9539H27.5366V26.9506ZM32.4223 32.2212C32.0223 32.5124 30.9935 33.2564 30.6212 33.5153L27.0288 32.8763C27.037 32.844 27.0451 32.8132 27.0533 32.7809C27.1006 32.5964 27.148 32.344 27.1513 32.0481L30.1705 32.0966L30.2277 32.0383C30.2734 31.9931 31.2303 31.0774 31.7185 30.55C31.8344 30.694 31.9797 30.8316 32.1691 30.9528C32.1039 31.3023 32.1316 31.8005 32.4223 32.2212ZM26.4083 31.6047C26.4932 31.7811 26.6466 31.8992 26.7529 31.9655C26.7495 32.1305 26.7332 32.3877 26.6892 32.6142C26.6793 32.6644 26.6663 32.7113 26.6516 32.7582C26.6435 32.7874 26.6353 32.8116 26.6287 32.831C26.4704 32.831 26.1584 32.8116 25.9037 32.7194C25.6213 32.6159 25.2 32.1031 25.2979 31.5385C25.4204 31.464 25.7029 31.3071 25.9675 31.3071C26.1716 31.3055 26.3103 31.4009 26.4083 31.6047ZM26.0344 30.8946L26.0947 28.6023L26.614 28.0571L26.9407 28.7334L26.2972 30.9334L26.0344 30.8946ZM32.3896 42.7783C32.1937 42.7783 32.0124 42.7815 31.8491 42.7881L32.277 41.4696C32.344 41.2868 32.0059 41.0522 31.867 40.8468C32.0777 40.9779 32.6231 41.2642 32.8861 41.3791C32.8583 41.4211 32.3896 42.7783 32.3896 42.7783ZM33.7319 41.2803L33.4527 42.7234C33.2747 42.7476 33.0853 42.7605 32.8909 42.7686L33.1849 41.3807C33.273 40.968 32.1545 40.8403 31.6026 40.0298C31.3331 40.3307 30.8253 40.4198 30.3159 40.4198C29.8505 40.4198 29.3851 40.3453 29.1026 40.2903C29.0307 40.279 28.9621 40.2709 28.8952 40.2709C28.7319 40.2709 28.5833 40.321 28.4805 40.4925L28.3988 40.6284L26.8754 40.2725L26.4965 40.8937C26.4426 40.994 26.4393 41.0798 26.5259 41.1735L26.6287 41.2852C26.5585 41.5052 26.2418 41.8368 26.2418 41.8368L26.0148 41.5569C25.8351 41.358 25.8646 40.9956 26.0524 40.6591L26.6565 39.648L27.9466 39.8325L27.7457 39.3795C27.4763 38.7809 27.8861 38.019 27.9302 37.5806C27.9155 37.7133 27.793 37.7424 27.6493 37.7424C27.5187 37.7424 27.3734 37.7181 27.277 37.7181C27.2395 37.7181 27.2068 37.7213 27.1888 37.7343L26.8394 37.9446L26.5634 37.7035C26.5307 37.6566 26.5194 37.5482 26.601 37.4674L27.2395 36.7588L26.4851 35.8869L27.5416 36.4126L27.8632 36.026C27.9515 36.1118 27.9139 36.3366 27.9139 36.3366C28.2437 36.3446 29.1679 36.8511 29.2169 38.032C29.2202 38.0675 29.2202 38.108 29.2202 38.1467C29.2202 38.1467 29.2284 38.1614 29.2447 38.1856C29.31 38.2747 29.4896 38.5027 29.7181 38.5237L31.178 38.6661H31.1845C31.3446 38.6661 31.663 38.4801 32.0712 38.4801C32.2933 38.4801 32.5415 38.5367 32.806 38.7017C32.806 38.7017 32.9382 38.5981 33.1538 38.5868C33.1701 38.5852 33.1882 38.5852 33.2045 38.5852C33.8593 38.5852 34.1303 39.1709 34.4814 39.6578C34.746 40.0282 35.0987 40.5783 35.0987 40.5783C34.968 40.7319 34.8471 40.816 34.6447 40.816C34.5892 40.816 34.5255 40.8111 34.4569 40.7983C33.7547 40.6704 33.6536 39.2404 33.2535 39.1271C33.2323 39.1207 33.2094 39.1191 33.1898 39.1191C33.0608 39.1191 33.0037 39.2324 33.0037 39.2324C33.1864 39.7192 33.0804 39.9166 33.2763 40.2919C33.4232 40.5702 33.6845 40.7999 33.7923 40.9083C33.7923 40.9115 33.7629 41.1218 33.7319 41.2803ZM25.8923 39.9149L25.9592 40.0816C25.9152 40.2272 25.409 40.4342 25.409 40.4342L25.2995 40.198C25.1836 39.9457 25.2081 39.5203 25.5608 39.2598L26.3805 38.7648L27.2493 38.9475C27.2329 39.2209 27.3978 39.4248 27.3978 39.4248L26.4867 39.2517L25.9413 39.6254C25.8499 39.6885 25.8433 39.8066 25.8923 39.9149ZM33.8691 42.6441L34.1189 41.3531C34.1319 41.2771 34.1482 41.1881 34.1597 41.1137C34.2299 41.1429 34.3051 41.1671 34.3867 41.1817C34.4797 41.1995 34.5662 41.2075 34.6447 41.2075C35.0268 41.2075 35.2489 41.0085 35.3975 40.8387L35.5902 40.6171L35.4334 40.3745C35.4187 40.3502 35.0725 39.8066 34.8047 39.4345C34.7524 39.3617 34.7017 39.2889 34.6512 39.2097C34.3475 38.7599 33.967 38.1954 33.2045 38.1954L33.1359 38.197C33.0101 38.2051 32.9024 38.2293 32.8159 38.2616C32.5758 38.15 32.3292 38.0935 32.0728 38.0935C31.7577 38.0935 31.4915 38.1792 31.3152 38.239C31.2645 38.2536 31.2189 38.2698 31.183 38.2763L29.7574 38.1371C29.7395 38.1339 29.6806 38.1 29.6104 38.0158V38.0093L29.919 37.8863C29.8325 36.8689 28.8462 36.2428 28.2959 36.0308C28.2715 35.9289 28.2225 35.8269 28.136 35.7445L27.829 35.4566L27.5595 35.7769L27.4273 35.9403L25.4319 35.1281L26.73 36.7426L26.2173 37.5111C26.0294 37.7084 26.2369 37.9058 26.2369 37.9058L26.7658 38.2665L27.3146 38.0643C27.3341 38.0643 27.3505 38.0692 27.3684 38.0708C27.3424 38.1532 27.3081 38.4768 27.2851 38.5674L26.3332 38.3814L25.3322 38.9411C24.8178 39.3148 24.7476 39.9344 24.9387 40.3583L25.0497 40.5992L25.2081 40.939L25.5575 40.795C25.5625 40.7934 25.5674 40.7917 25.5705 40.7886C25.4449 41.1865 25.4956 41.565 25.7208 41.8142L25.9331 42.0795L26.2156 42.4338L26.5259 42.1037C26.6173 42.0131 26.9129 41.6848 27.0043 41.4033L27.0713 41.188L26.9194 41.0231L26.8949 40.994L27.0648 40.7157L28.3073 41.0053L28.5866 41.0684L28.7352 40.8257L28.8169 40.693C28.8315 40.6656 28.8364 40.6607 28.8936 40.6607C28.9377 40.6607 28.9817 40.6656 29.0291 40.6753C29.4977 40.7626 29.9304 40.8064 30.3142 40.8064C30.6865 40.8064 30.9085 40.7917 31.1747 40.7044C31.1747 40.7044 31.8426 41.455 31.8654 41.4841L31.4573 42.733L31.4393 42.8091C30.6653 42.8705 30.2881 43.0388 29.8325 43.4901C29.1712 42.8397 28.7025 42.7719 26.9244 42.7719C24.7966 42.7719 23.3548 41.536 23.3548 39.5623V34.7367H36.307L36.3103 39.5623C36.3118 41.1638 35.3632 42.28 33.8691 42.6441ZM36.6695 26.9506C36.472 27.4683 36.307 28.0297 36.307 28.5878L36.3087 32.1888C35.5493 32.0627 35.4595 31.2521 35.4562 31.2166L35.4415 31.0515L35.2783 31.037C34.9484 31.0062 34.7296 30.867 34.5451 30.6892C34.1728 30.3204 34.1711 29.7218 34.1728 29.7169C34.1679 29.7476 33.7629 30.3089 34.2332 30.9221C34.4307 31.1809 34.7165 31.3395 35.0872 31.4026C35.1737 31.8523 35.5118 32.4864 36.3087 32.5835V34.3468H34.0683C33.0346 33.7774 33.4722 32.7744 33.4934 32.7324L33.5817 32.5414L33.3841 32.467C32.2655 32.0561 32.5725 30.9496 32.5888 30.9027L32.6345 30.7409L32.4827 30.6697C31.5584 30.2459 31.6842 29.1022 31.6957 29.0553C31.4115 29.2833 31.3086 29.7492 31.5046 30.2055C31.3984 30.3252 31.2565 30.4708 31.1013 30.6293C30.1444 30.3884 30.1151 29.5164 30.1151 29.476L30.1133 29.3416L29.9876 29.2931C29.6137 29.1556 29.3573 28.9501 29.2315 28.6734C29.0896 28.3678 29.1401 28.0475 29.1794 27.8937C29.2888 27.918 29.3981 27.9359 29.5026 27.9439C29.6104 27.9552 29.7215 27.9617 29.8325 27.9617H29.839H29.8472C29.9583 27.9617 30.0677 27.9552 30.1754 27.9439C30.7714 27.8857 31.4393 27.6317 32.1349 26.949H36.6695V26.9506ZM33.1783 23.3107L34.0633 23.8204H34.0764L34.2985 23.9482C33.7988 24.0857 33.4168 24.3332 33.0967 24.6583C33.0853 24.6681 33.0739 24.681 33.0624 24.6923C32.9889 24.7699 32.9154 24.8541 32.8469 24.9399C32.8338 24.9561 32.8207 24.9738 32.806 24.9916C32.7374 25.0789 32.6738 25.168 32.6117 25.2617C32.6019 25.278 32.5905 25.2942 32.5791 25.3087C32.5055 25.417 32.4354 25.5335 32.3652 25.6532C31.7348 26.729 30.729 27.3713 29.8342 27.3729C28.941 27.3713 27.9351 26.729 27.3047 25.6532C27.2361 25.5367 27.1676 25.4236 27.0941 25.3135C27.0794 25.2925 27.0663 25.2715 27.0533 25.2536C26.9913 25.1647 26.9292 25.0773 26.8655 24.9949C26.8492 24.9722 26.8345 24.9544 26.8181 24.935C26.7495 24.8524 26.6793 24.7699 26.6091 24.6939C26.5945 24.6826 26.5847 24.6681 26.57 24.6551C26.2483 24.33 25.8678 24.0841 25.3665 23.9482L25.5918 23.8204H25.6016L26.4867 23.3107L27.3962 22.7948L29.826 24.1051L29.8309 24.1002L29.8374 24.1051L32.2671 22.7948L33.1783 23.3107ZM31.9797 22.2253L30.0432 23.2364V19.1436L32.6705 18.2603L31.9797 22.2253ZM29.8325 18.6939L26.952 17.5663C27.197 16.9921 28.3269 16.5034 29.8325 16.5018C31.3397 16.5034 32.4696 16.9921 32.713 17.5663L29.8325 18.6939Z" fill="black"/>
</svg>
